<?xml version="1.0" encoding="utf-8"?>
<!-- Generator: Adobe Illustrator 16.0.2, SVG Export Plug-In . SVG Version: 6.00 Build 0)  -->
<!DOCTYPE svg PUBLIC "-//W3C//DTD SVG 1.1//EN" "http://www.w3.org/Graphics/SVG/1.1/DTD/svg11.dtd">
<svg version="1.1" id="Layer_1" xmlns="http://www.w3.org/2000/svg" xmlns:xlink="http://www.w3.org/1999/xlink" x="0px" y="0px"
	 width="24px" height="24px" viewBox="0 0 24 24" enable-background="new 0 0 24 24" xml:space="preserve">
<path fill="none" d="M0,0h24v24H0V0z"/>
<path fill="#FFFFFF" d="M4.083,21.236c0,1.451,1.188,2.639,2.639,2.639h10.556c1.45,0,2.639-1.188,2.639-2.639V5.402H4.083V21.236z
	 M7.329,11.841l1.86-1.86L12,12.778l2.798-2.797l1.859,1.86l-2.797,2.797l2.797,2.798l-1.859,1.86L12,16.5l-2.797,2.797l-1.86-1.86
	l2.797-2.798L7.329,11.841z M16.618,1.444l-1.319-1.319H8.701L7.382,1.444H2.764v2.639h18.473V1.444H16.618z"/>
<path fill="none" d="M0,0h24v24H0V0z"/>
</svg>
