<?xml version="1.0" encoding="utf-8"?>
<!-- Generator: Adobe Illustrator 16.0.2, SVG Export Plug-In . SVG Version: 6.00 Build 0)  -->
<!DOCTYPE svg PUBLIC "-//W3C//DTD SVG 1.1//EN" "http://www.w3.org/Graphics/SVG/1.1/DTD/svg11.dtd">
<svg version="1.1" id="Layer_1" xmlns="http://www.w3.org/2000/svg" xmlns:xlink="http://www.w3.org/1999/xlink" x="0px" y="0px"
	 width="120px" height="120px" viewBox="0 0 120 120" enable-background="new 0 0 120 120" xml:space="preserve">
<g>
	<path fill="#FFFFFF" d="M104.76,106.92c-2.359-1.253-3.098-3.562-3.531-5.894c-0.574-3.084-0.939-6.215-1.221-9.342
		c-0.223-2.489-0.188-5.002-0.27-7.504c-0.07-2.157-2.242-4.691-4.83-5.575c-0.51-0.175-1.076-0.253-1.617-0.254
		c-6.594-0.017-13.187,0.061-19.778-0.043c-2.998-0.048-6.604,3.561-6.549,6.523c0.104,5.549-0.137,11.139-1.609,16.558
		c-0.375,1.376-0.988,2.711-1.67,3.969c-0.344,0.632-1.084,1.048-1.645,1.562c-1.12,0-2.24,0-3.359,0
		c-0.72-0.242-1.428-0.523-2.159-0.719c-1.872-0.502-2.529-1.937-2.622-3.594c-0.278-4.951,1.21-9.56,2.764-14.151
		c1.053-3.11,1.962-6.291,3.288-9.283c2.046-4.613,5.646-7.629,10.63-8.669c2.07-0.433,4.244-0.476,6.373-0.504
		c5.116-0.067,10.237-0.076,15.354-0.002c3.146,0.046,6.146,0.753,8.793,2.604c2.855,1.996,5.021,4.496,6.133,7.861
		c0.969,2.933,2.156,5.798,3.012,8.762c0.953,3.3,1.639,6.678,2.449,10.02c0.021,0.091,0.148,0.156,0.225,0.234c0,1.2,0,2.4,0,3.6
		c-0.494,1.484-1.223,2.751-2.869,3.215c-0.65,0.183-1.287,0.415-1.93,0.626C107,106.92,105.881,106.92,104.76,106.92z"/>
	<path fill="#FFFFFF" d="M7.08,70.2c0.166-1.021,0.342-2.041,0.496-3.063c0.563-3.724,0.963-7.479,1.714-11.164
		c0.985-4.833,5.259-8.716,10.103-9.51c0.813-0.133,1.644-0.231,2.467-0.233c6.677-0.019,13.354-0.001,20.03-0.014
		c4.953-0.009,10.146,3.686,11.506,8.294c0.672,2.275,1.019,4.654,1.41,7.003c0.453,2.71,0.941,5.429,1.146,8.163
		c0.254,3.409,0.506,6.861-0.473,10.218c-0.563,1.93-1.556,2.651-3.61,2.757c-1.204,0.061-2.417,0.063-3.621-0.003
		c-1.892-0.104-3.237-1.453-3.414-4.003c-0.218-3.151-0.25-6.344-0.013-9.492c0.245-3.239,0.925-6.445,1.39-9.67
		c0.33-2.287-2.106-5.107-4.55-5.125c-6.716-0.048-13.433-0.047-20.149-0.002c-2.786,0.019-4.867,2.96-4.372,5.912
		c0.448,2.67,0.879,5.347,1.185,8.035c0.263,2.316,0.457,4.654,0.455,6.982c-0.001,1.47-0.297,2.971-0.677,4.399
		c-0.569,2.148-1.51,2.833-3.688,2.968c-0.925,0.058-1.856,0.059-2.782,0.019c-3.406-0.15-3.761-1.945-4.299-4.442
		c-0.044-0.205-0.167-0.394-0.253-0.589C7.08,75.16,7.08,72.68,7.08,70.2z"/>
	<path fill="#FFFFFF" d="M33.48,13.08c1.289,0.375,2.624,0.641,3.861,1.145c5.132,2.089,8.347,5.916,9.499,11.292
		c1.64,7.641-2.761,15.385-10.189,17.832c-6.572,2.165-12.281,0.462-16.911-4.6c-2.049-2.24-3.147-4.998-3.539-8.053
		c-0.735-5.734,1.288-10.388,5.544-14.08c2.092-1.814,4.599-2.98,7.425-3.287c0.164-0.018,0.313-0.162,0.47-0.248
		C30.92,13.08,32.2,13.08,33.48,13.08z M39.02,28.667c-0.124-4.082-3.165-7.334-7.456-7.429c-3.83-0.084-7.695,3.769-7.429,7.49
		c0.31,4.313,3.299,7.331,7.419,7.327C35.623,36.052,38.873,33.099,39.02,28.667z"/>
	<path fill="#FFFFFF" d="M108.121,106.92c0.643-0.211,1.279-0.443,1.93-0.626c1.646-0.464,2.375-1.73,2.869-3.215
		c0,1.28,0,2.561,0,3.841C111.32,106.92,109.721,106.92,108.121,106.92z"/>
	<path fill="#FFFFFF" d="M67.819,52.542c-0.162-8.25,6.859-15.843,16.169-15.464c8.08,0.329,15.01,6.856,14.922,15.555
		c-0.094,9.075-6.773,15.476-15.529,15.538C74.509,68.233,67.815,61.25,67.819,52.542z M90.619,52.536
		c0.279-3.617-3.025-7.31-7.314-7.331c-3.845-0.019-7.349,3.523-7.38,7.291c-0.033,3.981,3.428,7.341,7.247,7.471
		C86.986,60.098,91.053,56.461,90.619,52.536z"/>
</g>
</svg>
