<?xml version="1.0" encoding="utf-8"?>
<!-- Generator: Adobe Illustrator 16.0.2, SVG Export Plug-In . SVG Version: 6.00 Build 0)  -->
<!DOCTYPE svg PUBLIC "-//W3C//DTD SVG 1.0//EN" "http://www.w3.org/TR/2001/REC-SVG-20010904/DTD/svg10.dtd">
<svg version="1.0" id="Layer_1" xmlns="http://www.w3.org/2000/svg" xmlns:xlink="http://www.w3.org/1999/xlink" x="0px" y="0px"
	 width="120px" height="120px" viewBox="-6037.073 -5969.583 120 120" enable-background="new -6037.073 -5969.583 120 120"
	 xml:space="preserve">
<g>
	<path fill-rule="evenodd" clip-rule="evenodd" fill="#C40C0C" d="M-5948.3-5901.522c0.04,0.523,0.114,1.045,0.115,1.567
		c0.01,8.289,0.017,16.578,0.013,24.868c-0.003,4.737-3.199,8.275-7.906,8.663c-1.715,0.142-3.447,0.087-5.17,0.088
		c-11.46,0.007-22.92,0.008-34.38,0.004c-5.764-0.002-9.263-3.487-9.265-9.223c-0.004-18.358-0.014-36.716,0.015-55.074
		c0.003-1.543,0.075-3.136,0.449-4.62c0.902-3.575,4.16-6,7.852-6.067c1.168-0.021,2.338-0.044,3.503-0.005
		c0.992,0.032,1.348-0.361,1.379-1.371c0.094-3.01,0.694-3.656,3.688-3.623c1.674,0.019,2.583-0.473,3.484-2.017
		c3.578-6.124,12.566-5.965,16.099,0.233c0.774,1.358,1.594,1.847,3.13,1.78c3.053-0.134,3.78,0.602,3.938,3.725
		c0.053,1.065,0.545,1.261,1.469,1.303c1.927,0.087,3.904,0.053,5.76,0.492c3.416,0.807,5.892,4.215,5.94,7.776
		c0.032,2.391,0.02,4.784-0.012,7.176c-0.006,0.474-0.035,1.096-0.319,1.398c-1.89,2.013-3.853,3.958-6.166,6.303
		c-0.059-1.146-0.119-1.773-0.12-2.399c-0.01-3.783,0-7.566-0.012-11.349c-0.007-2.275-0.512-2.783-2.719-2.783
		c-12.628-0.001-25.256-0.002-37.884,0.001c-2.325,0-2.871,0.516-2.872,2.83c-0.009,18.803-0.008,37.606-0.002,56.409
		c0,1.894,0.707,2.601,2.637,2.603c12.74,0.011,25.479,0.013,38.219,0c1.93-0.001,2.595-0.69,2.6-2.625
		c0.015-6.119-0.038-12.24,0.063-18.357c0.016-0.931,0.525-2.004,1.134-2.741c1.511-1.832,3.212-3.506,4.836-5.244
		C-5948.634-5901.708-5948.467-5901.615-5948.3-5901.522z M-5976.405-5948.216c-1.962-0.039-3.774,1.699-3.812,3.657
		c-0.032,1.681,1.772,3.594,3.474,3.68c1.887,0.097,3.817-1.701,3.881-3.615C-5972.8-5946.35-5974.542-5948.181-5976.405-5948.216z"
		/>
	<path fill-rule="evenodd" clip-rule="evenodd" fill="#C40C0C" d="M-5944.631-5924.693c2.715,2.659,5.194,5.087,7.953,7.79
		c-1.479,1.389-2.916,2.678-4.285,4.034c-4.574,4.532-9.16,9.056-13.667,13.657c-1.627,1.662-3.397,2.896-5.662,3.553
		c-2.701,0.786-5.33,1.823-8.174,2.815c0-0.471-0.078-0.793,0.012-1.058c1.004-2.941,1.845-5.96,3.127-8.778
		c0.77-1.691,2.096-3.204,3.415-4.56C-5956.223-5913.083-5950.443-5918.84-5944.631-5924.693z M-5961.777-5901.859
		c0.497-0.392,1-0.719,1.419-1.132c3.9-3.854,7.791-7.719,11.673-11.59c1.453-1.448,2.911-2.893,4.285-4.413
		c0.278-0.308,0.187-0.948,0.266-1.436c-0.482,0.083-0.979,0.121-1.44,0.271c-0.239,0.079-0.418,0.354-0.614,0.549
		c-4.63,4.623-9.262,9.246-13.889,13.873c-0.745,0.746-1.498,1.488-2.174,2.292c-0.211,0.25-0.26,0.708-0.234,1.059
		C-5962.473-5902.223-5962.1-5902.086-5961.777-5901.859z M-5940.767-5916.789c-0.198-0.288-0.384-0.703-0.488-0.683
		c-0.502,0.093-1.118,0.166-1.448,0.493c-5.394,5.346-10.763,10.716-16.09,16.128c-0.362,0.367-0.342,1.11-0.501,1.677
		c0.573-0.187,1.312-0.208,1.698-0.587c5.377-5.285,10.708-10.618,16.04-15.949
		C-5941.256-5916.01-5941.045-5916.402-5940.767-5916.789z M-5966.889-5895.086c0.145,0.148,0.29,0.297,0.433,0.446
		c1.68-0.615,3.359-1.23,5.041-1.845c-1.259-1.376-2.306-2.522-3.592-3.929C-5965.712-5898.42-5966.301-5896.753-5966.889-5895.086z
		"/>
	<path fill-rule="evenodd" clip-rule="evenodd" fill="#D88D8D" d="M-5935.55-5918.339c-2.443-2.535-4.718-4.87-6.942-7.25
		c-0.218-0.234-0.317-0.947-0.147-1.119c1.313-1.334,2.622-2.699,4.097-3.84c1.261-0.977,2.639-0.645,3.774,0.422
		c1.13,1.062,2.248,2.142,3.297,3.282c1.074,1.168,1.132,3.018,0.058,4.252C-5932.604-5921.223-5933.94-5919.98-5935.55-5918.339z"
		/>
	<path fill-rule="evenodd" clip-rule="evenodd" fill="#D88D8D" d="M-5958.588-5920.481c-2.334,0-4.707,0-7.079,0
		c-4.663-0.003-9.326-0.022-13.989,0.003c-0.891,0.005-1.659,0.102-1.727-1.154c-0.071-1.304,0.755-1.258,1.624-1.258
		c6.551,0,13.101-0.012,19.653,0.003C-5958.244-5922.881-5958.152-5922.712-5958.588-5920.481z"/>
	<path fill-rule="evenodd" clip-rule="evenodd" fill="#D88D8D" d="M-5969.763-5888.386c3.281,0,6.562-0.006,9.842,0.004
		c0.764,0.003,1.582-0.128,1.615,1.104c0.035,1.305-0.786,1.241-1.649,1.24c-6.617-0.015-13.234-0.034-19.85-0.03
		c-0.859,0-1.513-0.027-1.539-1.184c-0.028-1.276,0.82-1.117,1.572-1.121c3.336-0.016,6.673-0.007,10.009-0.007
		C-5969.763-5888.381-5969.763-5888.383-5969.763-5888.386z"/>
	<path fill-rule="evenodd" clip-rule="evenodd" fill="#D88D8D" d="M-5983.589-5910.407c-2.182,2.382-4.368,4.799-6.619,7.152
		c-0.155,0.163-0.954-0.002-1.193-0.259c-1.057-1.135-2.075-2.318-2.973-3.58c-0.219-0.308-0.101-1.245,0.167-1.416
		c0.4-0.256,1.286-0.336,1.593-0.067c2.237,1.963,2.208,1.997,4.236-0.208c0.601-0.653,1.201-1.308,1.808-1.956
		C-5985.189-5912.214-5985.134-5912.208-5983.589-5910.407z"/>
	<path fill-rule="evenodd" clip-rule="evenodd" fill="#D88D8D" d="M-5993.206-5926.424c0.843,0.884,1.667,1.747,2.401,2.516
		c1.621-1.542,3.178-2.946,4.637-4.446c0.685-0.704,1.123-0.827,1.894-0.096c0.798,0.758,0.409,1.206-0.129,1.782
		c-1.78,1.907-3.564,3.811-5.299,5.758c-0.732,0.821-1.295,0.873-1.98-0.034c-0.702-0.927-1.409-1.876-2.253-2.665
		C-5995.292-5924.875-5994.803-5925.653-5993.206-5926.424z"/>
	<path fill-rule="evenodd" clip-rule="evenodd" fill="#D88D8D" d="M-5993.431-5892.31c1.042,1.113,1.86,1.989,2.839,3.035
		c1.438-1.554,2.731-2.976,4.05-4.374c1.465-1.551,1.523-1.538,3.006,0.415c-2.349,2.494-4.716,5.007-7.183,7.624
		c-1.379-1.564-2.697-2.902-3.823-4.387C-5995.517-5891.283-5993.965-5891.438-5993.431-5892.31z"/>
	<path fill-rule="evenodd" clip-rule="evenodd" fill="#D88D8D" d="M-5974.881-5905.419c1.828-0.002,3.657,0.021,5.484-0.013
		c0.938-0.018,1.445,0.438,1.212,1.289c-0.124,0.449-0.764,1.066-1.185,1.076c-3.543,0.082-7.09,0.032-10.635,0.048
		c-0.859,0.004-1.354-0.229-1.354-1.211c0-1.094,0.567-1.242,1.492-1.206C-5978.207-5905.371-5976.543-5905.417-5974.881-5905.419z"
		/>
</g>
</svg>
