<?xml version="1.0" encoding="utf-8"?>
<!-- Generator: Adobe Illustrator 16.0.2, SVG Export Plug-In . SVG Version: 6.00 Build 0)  -->
<!DOCTYPE svg PUBLIC "-//W3C//DTD SVG 1.0//EN" "http://www.w3.org/TR/2001/REC-SVG-20010904/DTD/svg10.dtd">
<svg version="1.0" id="Layer_1" xmlns="http://www.w3.org/2000/svg" xmlns:xlink="http://www.w3.org/1999/xlink" x="0px" y="0px"
	 width="120px" height="120px" viewBox="-6037.073 -5800.583 120 120" enable-background="new -6037.073 -5800.583 120 120"
	 xml:space="preserve">
<g>
	<g>
		<g>
			<path fill="#F49292" d="M-5991.412-5745.002c-0.55,3.511,1.85,6.8,5.368,7.344c3.496,0.55,6.783-1.856,7.333-5.363
				c0.543-3.51-1.861-6.798-5.369-7.343C-5987.584-5750.907-5990.872-5748.509-5991.412-5745.002z M-6011.029-5748.053
				c-2.236,14.336,7.586,27.775,21.918,30.003c14.337,2.233,27.778-7.575,30.01-21.92c2.233-14.342-7.576-27.773-21.919-30.003
				C-5995.358-5772.212-6008.795-5762.398-6011.029-5748.053z M-5998.389-5746.09c1.145-7.356,8.047-12.391,15.399-11.248
				c7.355,1.147,12.39,8.044,11.247,15.404c-1.155,7.354-8.036,12.389-15.404,11.247
				C-5994.496-5731.84-5999.538-5738.732-5998.389-5746.09z M-6030.214-5738.128l8.105-3.196c-0.188-2.751-0.09-5.565,0.345-8.404
				c0.517-3.301,1.457-6.431,2.747-9.354l-6.807-5.561c-0.779-0.631-0.981-1.728-0.458-2.445l3.21-5.102
				c0.412-0.788,1.483-1.081,2.39-0.665l8.189,3.804c3.607-3.952,8.067-7.101,13.009-9.182l-1.451-9.447
				c-0.15-0.987,0.43-1.94,1.3-2.115l5.801-1.648c0.831-0.313,1.827,0.19,2.22,1.105l3.915,9.205c0.01,0.023,0.01,0.046,0.023,0.066
				c2.723-0.176,5.514-0.086,8.319,0.355c2.585,0.407,5.065,1.065,7.407,1.955c0.039-0.065,0.071-0.115,0.106-0.159l6.526-7.579
				c0.66-0.749,1.76-0.93,2.457-0.387l5.032,3.341c0.771,0.434,1.032,1.513,0.585,2.404l-4.198,8.463
				c4.371,3.612,7.864,8.184,10.205,13.341l9.563-1.214c0.996-0.124,1.919,0.491,2.076,1.357l1.494,5.844
				c0.299,0.834-0.229,1.819-1.162,2.186l-8.832,3.479c0.296,3.063,0.224,6.206-0.269,9.385c-0.426,2.711-1.136,5.299-2.096,7.764
				l7.306,5.964c0.768,0.629,0.963,1.731,0.439,2.438l-3.201,5.11c-0.407,0.779-1.483,1.08-2.397,0.652l-8.25-3.834
				c-3.778,4.521-8.595,8.078-14.007,10.379l1.048,8.56c0.12,0.99-0.496,1.927-1.366,2.068l-5.848,1.474
				c-0.838,0.287-1.82-0.247-2.184-1.176l-3.149-8.1c-2.851,0.233-5.767,0.133-8.711-0.32c-2.723-0.423-5.331-1.149-7.799-2.109
				l-5.363,6.625c-0.636,0.778-1.734,0.987-2.448,0.464l-5.114-3.182c-0.8-0.398-1.096-1.478-0.679-2.387l3.451-7.492
				c-4.662-3.868-8.331-8.823-10.651-14.411l-8.414,1.065c-0.985,0.128-1.925-0.485-2.079-1.35l-1.498-5.845
				C-6031.662-5736.773-6031.135-5737.757-6030.214-5738.128z"/>
			<g>
				<g>
					<path fill="#F7D5D5" d="M-5971.86-5778.75c0.042-0.061,0.077-0.107,0.114-0.156l6.522-7.578
						c0.663-0.754,1.765-0.933,2.461-0.388l5.026,3.338c0.768,0.435,1.038,1.514,0.581,2.406l-4.198,8.467
						c4.378,3.613,7.873,8.182,10.217,13.341l9.557-1.211c0.995-0.128,1.922,0.484,2.079,1.353l1.487,5.841
						c0.301,0.838-0.228,1.822-1.159,2.189l-8.824,3.481c0.292,3.063,0.219,6.205-0.274,9.382c-0.425,2.711-1.133,5.308-2.101,7.763
						l7.31,5.966c0.77,0.627,0.965,1.729,0.435,2.436l-3.201,5.113c-0.407,0.776-1.481,1.081-2.391,0.647l-8.252-3.83
						c-3.78,4.524-8.596,8.077-14.01,10.379l1.051,8.553c0.122,0.996-0.498,1.928-1.365,2.074l-5.851,1.476
						c-0.839,0.285-1.819-0.245-2.185-1.178l-3.147-8.103c-2.335,0.195-4.721,0.149-7.126-0.122l1.277-10.802
						c13.882,1.52,26.652-8.097,28.824-22.049c2.23-14.34-7.582-27.773-21.925-30.001c-0.248-0.038-0.491-0.046-0.736-0.079
						l1.276-10.805c0.374,0.051,0.75,0.088,1.13,0.146C-5976.679-5780.297-5974.2-5779.639-5971.86-5778.75z"/>
					<path fill="#F7D5D5" d="M-5971.651-5741.928c-1.109,7.113-7.589,12.037-14.674,11.323l0.831-7.017
						c3.322,0.274,6.354-2.041,6.878-5.388c0.544-3.509-1.858-6.802-5.367-7.347c-0.003-0.001-0.007,0-0.007,0l0.825-6.998
						c0.092,0.007,0.183,0.013,0.271,0.025C-5975.544-5756.178-5970.504-5749.285-5971.651-5741.928z"/>
				</g>
			</g>
		</g>
		<g>
			<g>
				<path fill="#C48181" d="M-5959.674-5705.444v-0.155c-0.704-4.689-1.89-5.383-8.946-8.713l-9.223,0.196
					c-7.06,2.392-8.868,3.984-9.493,9.298l-0.782,7.034h29.12L-5959.674-5705.444z"/>
				<g>
					<polygon fill="#F8F3F3" points="-5977.335,-5716.54 -5977.958,-5714.196 -5973.602,-5710.681 -5973.74,-5716.149 					"/>
					<polygon fill="#FFFFFF" points="-5970.086,-5716.461 -5969.46,-5714.116 -5973.819,-5710.604 -5973.68,-5716.071 					"/>
				</g>
				<g>
					<g>
						<g>
							<path fill="#FFFFFF" d="M-5977.813-5716.493c0.176,0.235,0.36,0.457,0.55,0.663c0-0.003,0.001-0.008,0.003-0.014
								C-5977.451-5716.045-5977.635-5716.263-5977.813-5716.493z"/>
							<path fill="#F8F3F3" d="M-5966.659-5722.484c0-0.794-0.228-1.112-0.619-1.243c0.093-1.62,0.326-3.336-0.267-4.523
								c-1.13-2.267-4.248-3.66-6.376-3.66c-2.042,0-4.645,1.196-5.787,3.304c-0.704,1.302-0.347,3.017-0.258,4.769
								c-0.432,0.114-0.686,0.425-0.686,1.264c0,1.247,0.559,3.217,1.437,3.498c0.111,0.305,0.236,0.597,0.371,0.881
								c0.009,0.018,0.021,0.033,0.028,0.047c0.302,0.609,0.639,1.163,1.004,1.654c0.178,0.23,0.362,0.448,0.553,0.649
								c-0.001,0.006-0.003,0.01-0.003,0.014c1.06,1.152,2.315,1.822,3.664,1.822c2.062,0,3.903-1.557,5.156-4.018
								c0.098-0.183,0.205-0.348,0.326-0.494c0.073-0.183,0.145-0.365,0.206-0.555
								C-5967.141-5719.552-5966.659-5721.327-5966.659-5722.484z"/>
						</g>
					</g>
					<g>
						<g>
							<path fill="#FFFFFF" d="M-5968.443-5718.026c0.098-0.183,0.205-0.348,0.326-0.494c0.073-0.182,0.145-0.365,0.206-0.555
								c0.771-0.478,1.252-2.252,1.252-3.408c0-0.793-0.228-1.113-0.619-1.245c0.093-1.62,0.326-3.336-0.267-4.521
								c-1.115-2.242-4.173-3.626-6.3-3.66v17.885c0.083,0.006,0.165,0.015,0.247,0.015
								C-5971.537-5714.008-5969.695-5715.565-5968.443-5718.026z"/>
						</g>
					</g>
					<g>
						<path fill="#C48181" d="M-5977.249-5728.971c-0.127,1.041,1.824,0.997,3.126,0.781c1.302-0.216,2.068,0.042,3.286,0.389
							c1.229,0.354,2.432,1.624,2.604,2.258c0.106,0.381,0.015,2.215,0.015,2.215l1.092-0.508c0,0,0.499-2.683,0.109-4.397
							c-0.376-1.649-1.331-2.981-4.413-3.647c-2.794-0.603-4.753-0.238-4.84,0.455c-0.216,0.045-0.393-0.13-0.653-0.13
							c-0.651,0-1.889,0.759-2.454,1.672c-0.563,0.912-1.106,2.582-0.715,5.406c0.087,0.736,0.238,0.933,0.238,0.933l0.91,0.521
							c0,0-0.404-3.561,1.074-4.603C-5977.405-5727.955-5977.249-5728.971-5977.249-5728.971z"/>
						<g>
							<g>
								<path fill="#CE9797" d="M-5977.858-5727.666c-1.476,1.043-1.073,4.602-1.073,4.602l-0.91-0.519c0,0-0.15-0.196-0.239-0.934
									c-0.39-2.824,0.152-4.493,0.717-5.406s1.803-1.671,2.454-1.671c0.13,0,0.485,0.091,0.588,0.129
									c-0.277,0.919-0.921,2.237-0.916,2.455C-5977.236-5729.01-5977.391-5727.995-5977.858-5727.666z"/>
								<path fill="#CE9797" d="M-5977.236-5729.01c0.001,0.063,0.009,0.151,0.016,0.24
									C-5977.238-5728.843-5977.246-5728.92-5977.236-5729.01z"/>
							</g>
						</g>
					</g>
				</g>
			</g>
			<g>
				<path fill="#C45F5F" d="M-5945.572-5706.955v-0.186c-0.841-5.614-2.263-6.444-10.711-10.432l-11.042,0.235
					c-8.452,2.864-10.618,4.771-11.365,11.132l-0.936,8.421h34.864L-5945.572-5706.955z"/>
				<g>
					<polygon fill="#F8F1F1" points="-5966.716,-5720.239 -5967.463,-5717.433 -5962.246,-5713.225 -5962.413,-5719.772 					"/>
					<polygon fill="#FFFFFF" points="-5958.038,-5720.145 -5957.288,-5717.338 -5962.506,-5713.132 -5962.341,-5719.678 					"/>
				</g>
				<g>
					<g>
						<g>
							<path fill="#FFFFFF" d="M-5967.287-5720.184c0.21,0.282,0.431,0.547,0.658,0.793c0-0.004,0.001-0.009,0.003-0.016
								C-5966.854-5719.647-5967.075-5719.908-5967.287-5720.184z"/>
							<path fill="#F8F1F1" d="M-5953.933-5727.356c0-0.951-0.274-1.332-0.743-1.488c0.112-1.939,0.391-3.994-0.318-5.416
								c-1.353-2.714-5.086-4.382-7.634-4.382c-2.445,0-5.56,1.433-6.928,3.956c-0.842,1.56-0.416,3.612-0.308,5.71
								c-0.519,0.137-0.822,0.509-0.822,1.514c0,1.493,0.669,3.852,1.718,4.187c0.134,0.364,0.283,0.715,0.445,1.055
								c0.01,0.022,0.025,0.04,0.034,0.057c0.362,0.73,0.765,1.394,1.203,1.98c0.212,0.276,0.432,0.537,0.661,0.777
								c-0.001,0.007-0.003,0.012-0.003,0.016c1.267,1.379,2.771,2.182,4.387,2.182c2.467,0,4.674-1.865,6.173-4.811
								c0.115-0.219,0.244-0.416,0.39-0.591c0.086-0.219,0.172-0.437,0.245-0.665
								C-5954.51-5723.846-5953.933-5725.971-5953.933-5727.356z"/>
						</g>
					</g>
					<g>
						<g>
							<path fill="#FFFFFF" d="M-5956.068-5722.019c0.115-0.219,0.244-0.416,0.39-0.591c0.086-0.218,0.172-0.437,0.245-0.665
								c0.924-0.571,1.5-2.696,1.5-4.079c0-0.95-0.274-1.333-0.743-1.491c0.112-1.939,0.391-3.994-0.318-5.413
								c-1.336-2.685-4.997-4.342-7.542-4.382v21.414c0.098,0.007,0.196,0.018,0.295,0.018
								C-5959.775-5717.208-5957.568-5719.073-5956.068-5722.019z"/>
						</g>
					</g>
					<g>
						<path fill="#C45F5F" d="M-5966.612-5735.122c-0.153,1.246,2.184,1.192,3.743,0.935c1.558-0.259,2.478,0.051,3.934,0.466
							c1.472,0.423,2.912,1.944,3.118,2.703c0.127,0.456,0.018,2.652,0.018,2.652l1.306-0.609c0,0,0.599-3.211,0.131-5.264
							c-0.449-1.975-1.594-3.568-5.283-4.366c-3.346-0.722-5.691-0.285-5.796,0.545c-0.258,0.053-0.469-0.156-0.781-0.156
							c-0.779,0-2.261,0.908-2.937,2.001c-0.674,1.093-1.325,3.092-0.855,6.472c0.104,0.882,0.283,1.117,0.283,1.117l1.09,0.624
							c0,0-0.485-4.263,1.285-5.511C-5966.799-5733.906-5966.612-5735.122-5966.612-5735.122z"/>
						<g>
							<g>
								<path fill="#CE7A7A" d="M-5967.342-5733.56c-1.768,1.248-1.284,5.509-1.284,5.509l-1.088-0.621c0,0-0.181-0.234-0.287-1.117
									c-0.467-3.382,0.181-5.38,0.856-6.473c0.678-1.093,2.161-2.001,2.94-2.001c0.155,0,0.578,0.108,0.704,0.154
									c-0.333,1.101-1.104,2.678-1.096,2.939C-5966.598-5735.169-5966.783-5733.953-5967.342-5733.56z"/>
								<path fill="#CE7A7A" d="M-5966.598-5735.169c0.001,0.076,0.012,0.181,0.019,0.288
									C-5966.599-5734.968-5966.609-5735.062-5966.598-5735.169z"/>
							</g>
						</g>
					</g>
				</g>
			</g>
			<g>
				<path fill="#C40C0C" d="M-5923.733-5707.908v-0.24c-1.079-7.205-2.903-8.271-13.75-13.391l-14.172,0.301
					c-10.852,3.676-13.631,6.124-14.59,14.292l-1.202,9.314h44.755L-5923.733-5707.908z"/>
				<g>
					<polygon fill="#F8ECEC" points="-5950.876,-5724.961 -5951.833,-5721.358 -5945.137,-5715.958 -5945.35,-5724.36 					"/>
					<polygon fill="#FFFFFF" points="-5939.733,-5724.841 -5938.772,-5721.237 -5945.471,-5715.838 -5945.258,-5724.24 					"/>
				</g>
				<g>
					<g>
						<g>
							<g>
								<path fill="#FFFFFF" d="M-5951.607-5724.89c0.27,0.362,0.553,0.704,0.845,1.018c0-0.005,0.001-0.012,0.004-0.021
									C-5951.051-5724.202-5951.334-5724.536-5951.607-5724.89z"/>
							</g>
							<path fill="#F8ECEC" d="M-5934.466-5734.097c0-1.22-0.352-1.71-0.952-1.911c0.145-2.489,0.502-5.126-0.409-6.951
								c-1.737-3.485-6.529-5.626-9.8-5.626c-3.139,0-7.138,1.84-8.895,5.079c-1.082,2.001-0.533,4.636-0.396,7.33
								c-0.664,0.176-1.055,0.652-1.055,1.943c0,1.917,0.86,4.945,2.206,5.375c0.174,0.468,0.365,0.918,0.572,1.354
								c0.013,0.028,0.032,0.051,0.042,0.073c0.464,0.937,0.984,1.789,1.544,2.542c0.273,0.354,0.556,0.688,0.849,0.997
								c-0.003,0.009-0.004,0.016-0.004,0.021c1.626,1.771,3.558,2.801,5.632,2.801c3.167,0,6-2.394,7.923-6.176
								c0.149-0.281,0.314-0.533,0.501-0.757c0.111-0.283,0.223-0.561,0.315-0.854
								C-5935.205-5729.591-5934.466-5732.32-5934.466-5734.097z"/>
						</g>
					</g>
					<g>
						<g>
							<path fill="#FFFFFF" d="M-5937.208-5727.247c0.149-0.281,0.314-0.533,0.501-0.757c0.111-0.28,0.223-0.561,0.315-0.854
								c1.187-0.733,1.926-3.462,1.926-5.237c0-1.218-0.352-1.71-0.952-1.913c0.145-2.489,0.502-5.126-0.409-6.95
								c-1.716-3.445-6.414-5.573-9.682-5.624v27.487c0.125,0.009,0.251,0.024,0.378,0.024
								C-5941.963-5721.07-5939.131-5723.464-5937.208-5727.247z"/>
						</g>
					</g>
					<g>
						<path fill="#C40C0C" d="M-5950.742-5744.066c-0.197,1.598,2.804,1.53,4.806,1.198c2-0.332,3.179,0.067,5.049,0.599
							c1.889,0.543,3.738,2.494,4.002,3.469c0.164,0.585,0.023,3.404,0.023,3.404l1.677-0.781c0,0,0.768-4.123,0.169-6.757
							c-0.578-2.536-2.048-4.582-6.782-5.604c-4.294-0.927-7.306-0.367-7.441,0.7c-0.332,0.069-0.602-0.2-1.003-0.2
							c-1,0-2.902,1.166-3.771,2.568c-0.866,1.404-1.701,3.97-1.098,8.31c0.131,1.133,0.363,1.433,0.363,1.433l1.398,0.8
							c0,0-0.621-5.472,1.651-7.074C-5950.981-5742.506-5950.742-5744.066-5950.742-5744.066z"/>
						<g>
							<g>
								<path fill="#CE3535" d="M-5951.678-5742.061c-2.27,1.602-1.651,7.072-1.651,7.072l-1.396-0.798c0,0-0.232-0.3-0.366-1.433
									c-0.602-4.341,0.23-6.908,1.099-8.31c0.868-1.402,2.771-2.569,3.772-2.569c0.198,0,0.743,0.14,0.903,0.198
									c-0.425,1.415-1.416,3.439-1.407,3.773C-5950.723-5744.127-5950.959-5742.565-5951.678-5742.061z"/>
								<path fill="#CE3535" d="M-5950.723-5744.127c0.001,0.098,0.015,0.233,0.026,0.37
									C-5950.725-5743.869-5950.739-5743.989-5950.723-5744.127z"/>
							</g>
						</g>
					</g>
				</g>
			</g>
		</g>
	</g>
</g>
</svg>
