<?xml version="1.0" encoding="utf-8"?>
<!-- Generator: Adobe Illustrator 16.0.2, SVG Export Plug-In . SVG Version: 6.00 Build 0)  -->
<!DOCTYPE svg PUBLIC "-//W3C//DTD SVG 1.0//EN" "http://www.w3.org/TR/2001/REC-SVG-20010904/DTD/svg10.dtd">
<svg version="1.0" id="Layer_1" xmlns="http://www.w3.org/2000/svg" xmlns:xlink="http://www.w3.org/1999/xlink" x="0px" y="0px"
	 width="120px" height="120px" viewBox="-6037.073 -6133.583 120 120" enable-background="new -6037.073 -6133.583 120 120"
	 xml:space="preserve">
<g>
	<g>
		<polygon fill="#CE3535" points="-5989.685,-6100.67 -5981.53,-6066.148 -5998.202,-6069.323 -5998.383,-6086.806 		"/>
		<polygon fill="#C40C0C" points="-6014.511,-6098.136 -6021.578,-6066.603 -6004.722,-6056.543 -6005.81,-6094.056 		"/>
		<path fill="#BC6464" d="M-5977.181-6062.072v-0.272c-1.225-8.153-6.205-7.07-18.482-12.863l-11.328,0.181
			c-11.234,4.983-18.121,6.793-18.304,14.044l-1.358,12.229h50.651L-5977.181-6062.072z"/>
		<g>
			<g>
				<path fill="#C40C0C" d="M-6025.208-6060.932l-1.359,12.23h24.963v-26.359l-5.3,0.085
					C-6018.14-6069.994-6025.027-6068.182-6025.208-6060.932z"/>
			</g>
		</g>
		<g>
			<path fill="#FBEDED" d="M-6007.309-6080.056c-0.132,2.171-1.494,6.657-3.532,8.153c2.172,3.805,7.066,7.883,9.242,8.155
				c-0.136-8.291,0-16.308,0-16.308H-6007.309z"/>
			<path fill="#FFFFFF" d="M-5996.024-6080.056c0.136,2.171,1.493,6.657,3.534,8.153c-2.179,3.805-7.073,7.883-9.244,8.155
				c0.136-8.291,0-16.308,0-16.308H-5996.024z"/>
		</g>
		<g>
			<g>
				<path fill="#FBEDED" d="M-6011.525-6101.362c-1.222,2.262-0.602,5.245-0.444,8.293c-0.756,0.201-1.196,0.741-1.196,2.202
					c0,2.168,0.972,5.592,2.496,6.079c0.193,0.529,0.412,1.041,0.645,1.535c0.016,0.032,0.033,0.059,0.049,0.082
					c0.525,1.062,1.112,2.022,1.749,2.876c0.308,0.41,0.626,0.794,0.953,1.153c1.687,1.833,3.651,2.948,5.768,3.132v-31.099
					C-6005.054-6107.088-6009.546-6105.012-6011.525-6101.362z"/>
				<path fill="#FFFFFF" d="M-6001.613-6107.109v31.099c2.111-0.184,4.082-1.299,5.765-3.132c0.327-0.358,0.647-0.743,0.952-1.153
					c0.636-0.854,1.228-1.814,1.752-2.876c0.013-0.023,0.032-0.05,0.046-0.082c0.235-0.494,0.454-1.005,0.645-1.535
					c1.525-0.487,2.5-3.911,2.5-6.079c0-1.461-0.444-2.001-1.197-2.202c0.156-3.048,0.774-6.031-0.447-8.293
					C-5993.572-6105.012-5998.07-6107.088-6001.613-6107.109z"/>
			</g>
			<path fill="#C40C0C" d="M-6001.598-6107.784c-2.447-0.816-7.939,0.09-10.333,3.125c-3.532,4.485-3.395,13.118-3.395,13.118
				l4.485-0.612c0,0,1.314-5.527,6.204-7.429C-6000.945-6101.019-6001.598-6107.784-6001.598-6107.784z"/>
			<path fill="#CE3535" d="M-6006.628-6103.569c0.818,4.076,8.88,4.619,11.598,5.978c2.721,1.36,2.672,5.3,2.672,5.3l2.313-0.678
				c0,0,2.721-7.897-2.313-12.368c-4.891-4.35-11.194-2.944-13.366-2.4C-6007.899-6107.195-6006.628-6103.569-6006.628-6103.569z"/>
		</g>
	</g>
	<g>
		<path fill="#C40C0C" d="M-5929.152-6050.187v-0.383c-1.726-11.496-4.636-13.196-21.941-21.363l-22.611,0.479
			c-17.312,5.867-21.747,9.771-23.278,22.802l-1.917,17.245h71.407L-5929.152-6050.187z"/>
		<g>
			<polygon fill="#FBEDED" points="-5972.458,-6077.394 -5973.988,-6071.646 -5963.305,-6063.029 -5963.644,-6076.436 			"/>
			<polygon fill="#FFFFFF" points="-5954.682,-6077.202 -5953.15,-6071.454 -5963.836,-6062.838 -5963.497,-6076.245 			"/>
		</g>
		<path fill="#FFFFFF" d="M-5973.346-6074.713c1.061,1.342,6.637,5.666,9.857,5.323c3.218-0.341,8.56-3.214,9.619-5.515
			c0.883,0.957,4.215,3.544,4.215,3.544l-14.181,33.054l-13.218-31.809L-5973.346-6074.713z"/>
		<g>
			<g>
				<g>
					<g>
						<path fill="#FFFFFF" d="M-5973.626-6077.282c0.429,0.58,0.881,1.124,1.346,1.624c0.001-0.006,0.004-0.019,0.009-0.031
							C-5972.741-6076.182-5973.191-6076.716-5973.626-6077.282z"/>
					</g>
					<path fill="#FBEDED" d="M-5946.278-6091.97c0-1.947-0.561-2.728-1.52-3.048c0.229-3.973,0.801-8.18-0.653-11.091
						c-2.77-5.559-10.416-8.977-15.635-8.977c-5.008,0-11.391,2.936-14.192,8.105c-1.723,3.191-0.85,7.395-0.628,11.692
						c-1.062,0.281-1.685,1.042-1.685,3.1c0,3.057,1.373,7.887,3.52,8.575c0.275,0.746,0.583,1.465,0.912,2.161
						c0.022,0.045,0.05,0.083,0.068,0.118c0.742,1.493,1.57,2.852,2.466,4.053c0.435,0.565,0.885,1.1,1.355,1.593
						c-0.005,0.012-0.008,0.024-0.009,0.031c2.598,2.827,5.677,4.471,8.984,4.471c5.054,0,9.575-3.819,12.644-9.854
						c0.235-0.451,0.5-0.852,0.797-1.209c0.177-0.451,0.356-0.896,0.504-1.362
						C-5947.458-6084.781-5946.278-6089.135-5946.278-6091.97z"/>
				</g>
			</g>
			<g>
				<g>
					<path fill="#FFFFFF" d="M-5950.652-6081.04c0.235-0.451,0.5-0.852,0.797-1.209c0.177-0.447,0.356-0.896,0.504-1.362
						c1.893-1.17,3.073-5.524,3.073-8.356c0-1.944-0.561-2.729-1.52-3.05c0.229-3.973,0.801-8.18-0.653-11.089
						c-2.737-5.496-10.231-8.891-15.449-8.972v43.855c0.202,0.012,0.402,0.038,0.604,0.038
						C-5958.242-6071.187-5953.721-6075.005-5950.652-6081.04z"/>
				</g>
			</g>
			<g>
				<path fill="#C40C0C" d="M-5954.086-6107.876c0.316,2.551-4.471,2.443-7.666,1.913c-3.193-0.53-5.071,0.106-8.056,0.957
					c-3.015,0.866-5.963,3.978-6.386,5.536c-0.261,0.934-0.037,5.431-0.037,5.431l-2.676-1.248c0,0-1.228-6.578-0.271-10.78
					c0.923-4.046,3.268-7.311,10.821-8.941c6.853-1.48,11.656-0.586,11.873,1.114c0.53,0.111,0.96-0.316,1.598-0.316
					c1.596,0,4.632,1.86,6.017,4.098c1.384,2.238,2.713,6.333,1.753,13.256c-0.212,1.806-0.583,2.288-0.583,2.288l-2.231,1.277
					c0,0,0.99-8.73-2.631-11.287C-5953.704-6105.385-5954.086-6107.876-5954.086-6107.876z"/>
				<g>
					<g>
						<path fill="#CE3535" d="M-5952.591-6104.676c3.619,2.556,2.631,11.283,2.631,11.283l2.227-1.273c0,0,0.372-0.481,0.585-2.287
							c0.958-6.925-0.369-11.02-1.753-13.258c-1.386-2.237-4.422-4.098-6.018-4.098c-0.318,0-1.188,0.223-1.445,0.315
							c0.682,2.256,2.262,5.488,2.249,6.021C-5954.114-6107.973-5953.737-6105.481-5952.591-6104.676z"/>
						<path fill="#CE3535" d="M-5954.114-6107.973c-0.004,0.156-0.026,0.373-0.041,0.589
							C-5954.111-6107.563-5954.09-6107.753-5954.114-6107.973z"/>
					</g>
				</g>
			</g>
		</g>
		<g>
			<defs>
				<path id="SVGID_298_" d="M-5973.536-6074.521c1.059,1.341,6.635,5.667,9.854,5.326c3.218-0.344,8.56-3.218,9.621-5.518
					c0.884,0.958,4.213,3.544,4.213,3.544l-14.177,33.057l-13.222-31.811L-5973.536-6074.521z"/>
			</defs>
			<clipPath id="SVGID_2_">
				<use xlink:href="#SVGID_298_"  overflow="visible"/>
			</clipPath>
			<g clip-path="url(#SVGID_2_)">
				<g>
					<g>
						<polygon fill="#F5D2D2" points="-5961.51,-6060.559 -5963.851,-6060.559 -5963.851,-6066.706 -5959.194,-6066.706 
							-5959.163,-6064.058 						"/>
						<polygon fill="#F5D2D2" points="-5961.216,-6061.496 -5957.116,-6022.717 -5963.594,-6017.633 -5963.734,-6017.77 
							-5963.972,-6061.465 						"/>
						<polygon fill="#EFB9B9" points="-5965.647,-6060.559 -5963.686,-6060.559 -5963.686,-6066.706 -5968.456,-6066.706 
							-5968.42,-6064.058 						"/>
						<polygon fill="#EFB9B9" points="-5965.976,-6061.496 -5970.077,-6022.717 -5963.594,-6017.633 -5963.687,-6061.496 						"/>
					</g>
					<polygon fill="#EFB9B9" points="-5961.121,-6060.621 -5966.034,-6060.621 -5966.034,-6061.068 -5961.169,-6061.068 					"/>
				</g>
			</g>
		</g>
	</g>
</g>
</svg>
