<?xml version="1.0" encoding="utf-8"?>
<!-- Generator: Adobe Illustrator 16.0.2, SVG Export Plug-In . SVG Version: 6.00 Build 0)  -->
<!DOCTYPE svg PUBLIC "-//W3C//DTD SVG 1.1//EN" "http://www.w3.org/Graphics/SVG/1.1/DTD/svg11.dtd">
<svg version="1.1" id="Layer_1" xmlns="http://www.w3.org/2000/svg" xmlns:xlink="http://www.w3.org/1999/xlink" x="0px" y="0px"
	 width="120px" height="120px" viewBox="0 0 120 120" enable-background="new 0 0 120 120" xml:space="preserve">
<g>
	<path fill="#FFFFFF" d="M98.356,78.239c-0.167,0.708-0.375,1.408-0.495,2.124c-0.313,1.874-1.333,2.536-3.329,2.704
		c-0.682,0.057-1.373,0.009-2.203,0.009c0.566,0.882,1.386,1.67,0.53,2.684c-0.636,0.753-1.302,1.481-2.031,2.309
		c0.152,0.87,0.543,1.601,1.77,1.36c0.117-0.023,0.243-0.011,0.364-0.001c0.878,0.076,1.94-0.327,2.46,0.766
		c0.666,1.4,0.697,2.853-0.024,4.241c-0.142,0.273-0.625,0.448-0.98,0.515c-0.469,0.086-0.975,0.081-1.45,0.012
		c-1.225-0.181-2.027,0.165-2.118,1.879c0.438,0.382,1.087,0.926,1.712,1.496c0.763,0.695,0.919,1.464,0.227,2.316
		c-0.226,0.277-0.394,0.601-0.63,0.867c-1.65,1.857-2.48,1.882-4.216,0.147c-0.287-0.286-0.553-0.595-0.865-0.848
		c-0.547-0.443-1.749,0.034-1.84,0.731c-0.046,0.358,0.004,0.728-0.013,1.09c-0.046,0.967,0.37,2.188-0.824,2.67
		c-1.314,0.53-2.757,0.613-4.028-0.188c-0.359-0.227-0.573-0.832-0.663-1.299c-0.113-0.585-0.096-1.219-0.012-1.813
		c0.111-0.781-0.302-1.168-0.933-1.252c-0.336-0.044-0.764,0.22-1.075,0.447c-0.644,0.469-1.205,1.056-1.862,1.503
		c-0.792,0.538-2.128-0.009-3.06-1.171c-1.376-1.719-1.336-2.291,0.277-3.905c0.229-0.229,0.574-0.419,0.662-0.692
		c0.139-0.435,0.219-0.955,0.103-1.376c-0.071-0.256-0.541-0.497-0.868-0.564c-0.466-0.095-0.966-0.025-1.451-0.025
		c-1.81,0-2.808-1.229-2.442-3.003c0.072-0.348,0.157-0.696,0.191-1.048c0.094-0.947,0.619-1.442,1.551-1.487
		c0.646-0.03,1.306,0.065,1.938-0.034c0.396-0.061,0.981-0.305,1.072-0.596c0.134-0.423,0.003-1.014-0.208-1.437
		c-0.206-0.413-0.648-0.71-0.997-1.046c-1.351-1.302-0.98-1.586-0.101-2.946c0.107-0.166,0.283-0.287,0.426-0.43
		c1.845-1.85,2.408-1.846,4.286,0.028c0.172,0.171,0.314,0.434,0.519,0.497c0.413,0.126,0.911,0.291,1.274,0.161
		c0.302-0.109,0.574-0.592,0.654-0.955c0.11-0.501,0.027-1.046,0.028-1.572c0.005-1.671,0.432-2.092,2.15-2.118
		c0.04,0,0.081,0.001,0.121,0c3.227-0.051,3.386,0.07,3.304,3.25c-0.012,0.449,0.262,1.04,0.603,1.333
		c0.588,0.507,1.116,0.161,1.634-0.356c0.724-0.724,1.563-1.332,2.439-2.061c-0.904-3.354-0.647-6.907-0.079-10.472
		c0.294-1.846,0.621-3.697,0.723-5.558c0.125-2.286-1.53-3.884-3.842-3.892c-4.653-0.016-9.305-0.004-13.958-0.004
		c-3.311,0-4.904,2.065-4.275,5.252c0.461,2.334,0.727,4.718,0.918,7.093c0.144,1.778,0.085,3.579,0.017,5.366
		c-0.155,4.102-2.396,4.44-5.698,4.031c-1.701-0.21-2.515-1.364-2.753-3.072c-0.576-4.137-0.098-8.208,0.698-12.265
		c0.191-0.974,0.371-1.951,0.509-2.933c0.107-0.766-0.008-1.356-1.044-1.306c-0.945,0.046-1.505-0.57-1.938-1.361
		c-1.211-2.213-1.614-4.648-1.834-7.093c-0.274-3.034-0.333-6.086-0.52-9.129c-0.121-1.959-2.658-4.214-4.862-4.233
		c-5.098-0.043-10.196-0.062-15.292,0.009c-2.236,0.031-4.907,2.43-4.949,5.07c-0.062,3.906-0.526,7.809-0.94,11.701
		c-0.12,1.116-0.558,2.234-1.027,3.271c-0.798,1.765-2.674,2.202-5.004,1.695c-2.033-0.442-2.853-1.681-3.137-3.534
		c0-0.404,0-0.809,0-1.213c0.083-0.119,0.217-0.228,0.245-0.358c0.5-2.359,0.87-4.754,1.512-7.073
		c0.664-2.396,1.694-4.689,2.379-7.08c1.424-4.969,5.902-8.68,11.251-8.759c4.932-0.074,9.868-0.108,14.797,0.018
		c3.244,0.082,6.033,1.363,8.292,3.812c1.479,1.606,2.177,3.493,2.913,5.5c1.412,3.861,2.879,7.686,3.635,11.883
		c0.447-0.194,0.79-0.39,1.158-0.494c1.327-0.374,2.661-1.009,3.997-1.02c5.481-0.042,10.973-0.051,16.444,0.241
		c4.316,0.23,7.244,3.292,8.275,7.178c0.738,2.783,0.896,5.721,1.31,8.589c0.173,1.194,0.337,2.389,0.505,3.584
		C98.356,75.812,98.356,77.025,98.356,78.239z M77.994,98.109c0.439,0.308,0.709,0.644,1.024,0.696
		c1.984,0.323,2.659,1.455,2.392,3.396c-0.042,0.3,0.731,1.04,1,0.983c0.438-0.094,0.915-0.617,1.108-1.072
		c0.189-0.446,0.085-1.037,0.038-1.558c-0.06-0.663,0.161-1,0.835-1.197c0.855-0.25,1.665-0.659,2.538-1.017
		c0.605,0.542,1.239,1.237,2.004,1.733c0.315,0.204,1.066,0.143,1.329-0.104c0.222-0.21,0.192-0.967-0.017-1.299
		c-0.484-0.771-1.143-1.431-1.633-2.019c0.355-0.886,0.727-1.711,1.016-2.564c0.194-0.57,0.479-0.813,1.11-0.796
		c0.708,0.019,1.445-0.024,2.117-0.221c0.288-0.083,0.59-0.611,0.611-0.954c0.016-0.25-0.37-0.617-0.662-0.772
		c-0.332-0.178-0.771-0.281-1.142-0.239c-1.257,0.144-2.204-0.073-2.322-1.578c-0.012-0.149-0.092-0.317-0.192-0.43
		c-1.009-1.14-0.288-1.874,0.589-2.578c0.031-0.025,0.056-0.058,0.084-0.087c1.069-1.105,1.054-1.347-0.323-2.5
		c-0.889,0.712-1.812,1.451-2.722,2.18c-0.627-0.278-1.252-0.681-1.934-0.829c-1.078-0.235-1.457-0.811-1.284-1.853
		c0.04-0.236-0.003-0.484,0.007-0.726c0.037-0.813-0.259-1.592-1.099-1.481c-0.431,0.056-0.93,0.893-1.079,1.461
		c-0.187,0.712-0.045,1.51-0.045,2.065c-1.209,0.516-2.244,0.958-3.239,1.382c-0.736-0.615-1.438-1.284-2.231-1.815
		c-0.234-0.157-0.874-0.061-1.063,0.153c-0.233,0.264-0.391,0.904-0.229,1.151c0.541,0.827,1.239,1.552,1.791,2.214
		c-0.457,1.098-0.888,2.138-1.365,3.286c-0.756,0-1.634-0.138-2.435,0.053c-0.454,0.107-0.781,0.752-1.165,1.155
		c0.438,0.327,0.835,0.785,1.328,0.942c0.514,0.165,1.128-0.017,1.683,0.061c0.296,0.042,0.701,0.245,0.816,0.488
		c0.43,0.916,0.761,1.878,1.109,2.769c-0.562,0.677-1.104,1.316-1.628,1.97c-0.422,0.526-0.571,1.213,0.046,1.535
		c0.391,0.203,1.162,0.04,1.568-0.241C76.948,99.428,77.396,98.76,77.994,98.109z"/>
	<path fill="#FFFFFF" d="M29.655,110.041c-0.279-0.087-0.555-0.233-0.839-0.252c-1.531-0.101-2.433-0.805-2.77-2.307
		c-0.501-2.234-0.654-4.464-0.297-6.767c0.527-3.418,0.741-6.885,1.286-10.299c0.666-4.169,3.37-7.362,7.805-8.247
		c1.359-0.271,2.789-0.247,4.187-0.257c4.244-0.03,8.489,0.001,12.733-0.014c5.06-0.018,8.967,3.39,9.874,8.313
		c0.597,3.239,0.807,6.548,1.28,9.813c0.372,2.565,0.368,5.098-0.285,7.609c-0.362,1.395-1.289,2.132-2.76,2.16
		c-0.2,0.004-0.396,0.162-0.595,0.25c-0.405,0-0.809,0-1.213,0c-0.118-0.084-0.238-0.245-0.353-0.241
		c-1.793,0.068-2.709-0.908-3.058-2.552c-0.171-0.81-0.41-1.624-0.437-2.441c-0.128-3.848,0.315-7.647,1.149-11.399
		c0.727-3.271-0.835-5.235-4.212-5.235c-4.605,0-9.209,0-13.814,0c-3.015,0-4.613,2.083-4.012,5.021
		c0.896,4.381,1.626,8.798,0.908,13.286c-0.326,2.033-0.784,3.25-3.251,3.319c-0.12,0.004-0.236,0.158-0.353,0.242
		C30.302,110.041,29.979,110.041,29.655,110.041z"/>
	<path fill="#FFFFFF" d="M81.12,29.687c0.949,0.323,1.896,0.652,2.847,0.968c4.104,1.361,7.278,6.185,7.403,10.609
		c0.155,5.502-3.797,10.542-8.68,11.759C78.769,54,75.251,53.346,72.04,50.83c-2.94-2.303-4.345-5.407-4.449-8.979
		c-0.17-5.879,4.143-11.122,10.019-11.92c0.127-0.017,0.237-0.16,0.354-0.244C79.016,29.687,80.068,29.687,81.12,29.687z
		 M79.489,47.185c3.203,0.283,5.674-2.412,5.724-5.552c0.047-3.038-2.321-5.576-5.654-5.678c-3.456-0.104-5.726,2.979-5.76,5.595
		C73.767,44.148,76.198,47.527,79.489,47.185z"/>
	<path fill="#FFFFFF" d="M32.587,68.305c-0.339-5.968,5.14-12.232,12.569-11.679c6.46,0.481,11.151,5.412,11.1,11.788
		c-0.056,6.9-4.917,11.771-11.863,11.915C38.161,80.458,32.285,75.447,32.587,68.305z M50.065,68.435
		c-0.02-3.12-2.685-5.745-5.717-5.711c-3.225,0.037-5.664,2.525-5.693,5.725c-0.03,3.195,2.793,5.637,5.607,5.677
		C47.36,74.168,50.06,71.502,50.065,68.435z"/>
	<path fill="#FFFFFF" d="M32.587,21.672c-0.339-5.968,5.14-12.232,12.569-11.679c6.46,0.481,11.151,5.412,11.1,11.788
		c-0.056,6.9-4.917,11.771-11.863,11.915C38.161,33.826,32.285,28.814,32.587,21.672z M50.065,21.802
		c-0.02-3.12-2.685-5.745-5.717-5.71c-3.225,0.037-5.664,2.525-5.693,5.725c-0.03,3.195,2.793,5.637,5.607,5.677
		C47.36,27.536,50.06,24.869,50.065,21.802z"/>
	<path fill="#FFFFFF" d="M87.413,92.22c-0.031,2.965-2.08,4.85-4.966,4.931c-2.421,0.067-5.031-2.089-4.908-4.957
		c0.129-3.02,1.987-4.836,5.06-4.888C85.233,87.261,87.381,89.432,87.413,92.22z M82.447,95.251
		c1.736,0.001,3.072-1.295,3.062-2.971c-0.01-1.681-1.404-3.155-2.965-3.135c-1.748,0.021-3.156,1.405-3.142,3.084
		C79.416,93.867,80.811,95.25,82.447,95.251z"/>
</g>
</svg>
