<?xml version="1.0" encoding="utf-8"?>
<!-- Generator: Adobe Illustrator 16.0.2, SVG Export Plug-In . SVG Version: 6.00 Build 0)  -->
<!DOCTYPE svg PUBLIC "-//W3C//DTD SVG 1.1//EN" "http://www.w3.org/Graphics/SVG/1.1/DTD/svg11.dtd">
<svg version="1.1" id="Layer_1" xmlns="http://www.w3.org/2000/svg" xmlns:xlink="http://www.w3.org/1999/xlink" x="0px" y="0px"
	 width="120px" height="120px" viewBox="0 0 120 120" enable-background="new 0 0 120 120" xml:space="preserve">
<g>
	<path fill="#FFFFFF" d="M114.12,27c-0.326,1.546-0.68,3.087-0.973,4.64c-0.88,4.658-1.751,9.318-2.597,13.982
		c-0.756,4.165-1.464,8.34-2.215,12.507c-0.375,2.079-0.715,4.171-1.227,6.218c-0.39,1.562-1.274,2.146-2.916,2.229
		c-3.487,0.177-6.976,0.327-10.463,0.484c-3.648,0.163-7.297,0.318-10.946,0.483c-3.449,0.155-6.897,0.322-10.347,0.476
		c-3.768,0.167-7.538,0.315-11.306,0.486c-3.29,0.148-6.579,0.307-9.867,0.478c-2.559,0.134-5.116,0.293-7.8,0.448
		c0.651,2.452,1.249,4.713,1.852,6.972c0.196,0.734,0.749,0.786,1.395,0.784c5.598-0.016,11.196-0.009,16.794-0.009
		c11.157,0,22.313,0,33.469,0c2.268,0,3.447,1.064,3.446,3.111c-0.001,2.14-1.261,3.329-3.547,3.33
		c-13.196,0.002-26.392,0.001-39.587,0.001c-4.678,0-9.357,0.002-14.035-0.001c-1.805-0.001-3.057-0.985-3.504-2.674
		c-1.804-6.804-3.629-13.602-5.433-20.406c-2.284-8.618-4.537-17.245-6.837-25.86c-1.673-6.267-3.402-12.519-5.095-18.739
		c-4.031,0-7.968-0.045-11.903,0.02c-1.933,0.031-3.527-0.456-4.599-2.16c0-0.8,0-1.6,0-2.4c0.617-1.041,1.554-1.691,2.64-2.159
		c5.68,0,11.36,0,17.04,0c1.633,0.584,2.393,1.858,2.794,3.453c0.726,2.881,1.523,5.744,2.21,8.634
		c0.273,1.149,0.691,1.651,2.029,1.648c25.779-0.05,51.559-0.021,77.338-0.067c1.984-0.004,3.442,0.476,4.189,2.411
		C114.12,25.88,114.12,26.439,114.12,27z M106.907,29.454c-24.785,0-49.437,0-74.142,0c0.647,2.377,1.281,4.672,1.896,6.971
		c1.525,5.706,3.042,11.413,4.561,17.12c0.725,2.721,1.418,5.45,2.189,8.158c0.146,0.51,0.023,1.369,1.039,1.292
		c2.285-0.174,4.572-0.33,6.861-0.451c3.408-0.18,6.818-0.332,10.228-0.481c3.849-0.169,7.698-0.315,11.547-0.486
		c3.33-0.147,6.658-0.321,9.988-0.473c3.689-0.168,7.378-0.339,11.067-0.479c2.744-0.105,5.489-0.18,8.233-0.235
		c0.661-0.014,1.013-0.153,1.07-0.922c0.074-1.013,0.309-2.015,0.495-3.018c0.863-4.662,1.739-9.321,2.598-13.983
		C105.332,38.152,106.109,33.836,106.907,29.454z"/>
	<path fill="#FFFFFF" d="M48.36,110.76c-1.504-0.671-3.07-1.233-4.5-2.037c-2.828-1.592-4.657-6.409-3.95-9.701
		c0.89-4.147,3.214-6.801,7.217-8.01c5.4-1.631,11.402,1.952,12.539,7.772c1.061,5.429-2.821,11.124-8.196,11.749
		c-0.084,0.01-0.154,0.148-0.23,0.227C50.28,110.76,49.32,110.76,48.36,110.76z M49.769,97.065
		c-1.637,0.034-3.615,2.044-3.584,3.643c0.031,1.637,2.038,3.614,3.64,3.587c1.659-0.028,3.604-2.016,3.564-3.643
		C53.349,98.988,51.374,97.031,49.769,97.065z"/>
	<path fill="#FFFFFF" d="M89.16,110.76c-1.479-0.636-3.084-1.077-4.409-1.947c-2.723-1.789-4.158-4.361-4.239-7.731
		c-0.114-4.738,2.11-7.927,6.308-9.72c3.498-1.493,6.886-0.832,9.878,1.434c4.474,3.385,4.833,9.793,2.051,13.571
		c-1.648,2.239-3.754,3.791-6.6,4.152c-0.125,0.016-0.233,0.158-0.349,0.241C90.92,110.76,90.04,110.76,89.16,110.76z
		 M93.979,100.633c-0.013-1.72-1.742-3.501-3.457-3.561c-1.685-0.058-3.538,1.823-3.541,3.595c-0.003,1.78,1.807,3.646,3.516,3.622
		C92.244,104.266,93.992,102.43,93.979,100.633z"/>
	<path fill="#FFFFFF" d="M8.52,9.24c-1.086,0.468-2.023,1.118-2.64,2.159c0-0.72,0-1.439,0-2.159C6.76,9.24,7.64,9.24,8.52,9.24z"/>
	<path fill="#FFFFFF" d="M46.459,46.397c0-2.197-0.017-4.395,0.006-6.592c0.016-1.5,0.894-2.726,2.208-3.181
		c1.377-0.477,2.858-0.154,3.676,1.054c0.455,0.671,0.744,1.589,0.758,2.401c0.073,4.233,0.052,8.47,0.027,12.704
		c-0.013,2.213-1.453,3.741-3.412,3.717c-1.872-0.023-3.257-1.612-3.262-3.751C46.455,50.633,46.458,48.515,46.459,46.397z"/>
	<path fill="#FFFFFF" d="M73.301,46.497c0,2.24-0.063,4.482,0.02,6.719c0.066,1.771-1.277,3.283-3.255,3.283
		c-1.723,0-3.193-1.45-3.201-3.22c-0.019-4.56-0.017-9.119,0-13.679c0.006-1.64,1.585-3.269,3.189-3.201
		c1.772,0.074,3.323,1.184,3.262,3.26C73.249,41.937,73.301,44.218,73.301,46.497z"/>
	<path fill="#FFFFFF" d="M93.701,46.61c0,2.236-0.075,4.476,0.023,6.707c0.081,1.841-1.693,3.196-3.235,3.188
		c-1.863-0.012-3.226-1.322-3.229-3.167c-0.006-4.512-0.006-9.023,0-13.536c0.003-1.881,1.533-3.471,3.269-3.421
		c1.751,0.05,3.163,1.555,3.169,3.402C93.707,42.059,93.701,44.335,93.701,46.61z"/>
</g>
</svg>
