<?xml version="1.0" encoding="utf-8"?>
<!-- Generator: Adobe Illustrator 16.0.2, SVG Export Plug-In . SVG Version: 6.00 Build 0)  -->
<!DOCTYPE svg PUBLIC "-//W3C//DTD SVG 1.1//EN" "http://www.w3.org/Graphics/SVG/1.1/DTD/svg11.dtd">
<svg version="1.1" id="Layer_1" xmlns="http://www.w3.org/2000/svg" xmlns:xlink="http://www.w3.org/1999/xlink" x="0px" y="0px"
	 width="120px" height="50px" viewBox="0 0 120 50" enable-background="new 0 0 120 50" xml:space="preserve">
<path fill="#FFFFFF" d="M686.621,297.557c0-13.381-9.58-14.684-16.837-8.738c-4.627,3.784-10.553,10.652-10.553,4.125
	c0-15.485-15.479-8.633-25.708,4.645l0.01,14.33c10.228-13.264,25.698-20.099,25.698-4.631c0,6.537,5.926-0.336,10.553-4.116
	c6.595-5.404,15.088-4.823,16.605,5.345h0.232V297.557L686.621,297.557z"/>
<path fill="#FFFFFF" d="M686.621,278.762c0-13.381-9.58-14.694-16.837-8.737c-4.627,3.787-10.553,10.658-10.553,4.128
	c0-15.48-15.47-8.641-25.698,4.625v13.611c10.449-12.478,25.698-19.36,25.698-3.884c0,6.53,5.926-0.351,10.553-4.123
	c6.595-5.412,15.088-4.824,16.605,5.324h0.232V278.762L686.621,278.762z"/>
<path fill="#FFFFFF" d="M746.129,271.686c-1.57,0-3.07,0.388-4.453,1.162c-1.303,0.718-2.313,1.807-3.027,3.229
	c-0.455-1.422-1.298-2.511-2.494-3.224c-1.277-0.778-2.728-1.167-4.294-1.167c-1.943,0-3.56,0.425-4.817,1.263
	c-1.192,0.792-2.173,1.89-2.929,3.272v-3.848h-2.919v23.872h3.15v-13.306c0-1.23,0.144-2.384,0.408-3.42
	c0.271-1.033,0.689-1.948,1.242-2.703c0.546-0.762,1.27-1.364,2.141-1.794c0.891-0.433,1.934-0.647,3.124-0.647
	c0.881,0,1.645,0.15,2.278,0.446c0.615,0.293,1.123,0.7,1.485,1.212c0.362,0.516,0.633,1.132,0.798,1.828
	c0.167,0.726,0.252,1.477,0.252,2.239v16.145h3.137v-13.49c0-1.085,0.111-2.151,0.299-3.153c0.196-0.988,0.532-1.886,1.013-2.682
	c0.469-0.77,1.121-1.39,1.919-1.854c0.811-0.455,1.833-0.691,3.049-0.691c2.019,0,3.451,0.499,4.247,1.483
	c0.793,0.992,1.202,2.47,1.202,4.378v16.008h3.144V280.1C754.083,274.515,751.412,271.686,746.129,271.686z"/>
<path fill="#FFFFFF" d="M779.114,293.556c-1.046,0-1.552-0.524-1.552-1.61v-12.531c0-1.606-0.276-2.927-0.801-3.927
	c-0.523-1.011-1.216-1.798-2.049-2.358c-0.854-0.563-1.782-0.936-2.833-1.145c-2.435-0.456-4.917-0.373-6.934,0.165
	c-1.135,0.31-2.137,0.791-2.987,1.438c-0.859,0.652-1.543,1.5-2.035,2.519c-0.495,1.01-0.79,2.23-0.886,3.618l-0.009,0.143h3.154
	l0.005-0.126c0.065-1.872,0.657-3.249,1.773-4.084c1.133-0.848,2.613-1.282,4.406-1.282c0.852,0,1.658,0.066,2.383,0.203
	c0.731,0.136,1.37,0.383,1.916,0.738c0.542,0.36,0.971,0.835,1.277,1.438c0.311,0.605,0.476,1.395,0.476,2.335
	c0,0.621-0.082,1.132-0.247,1.51c-0.156,0.367-0.373,0.66-0.667,0.888c-0.291,0.213-0.66,0.366-1.088,0.45
	c-0.454,0.096-0.982,0.175-1.586,0.228c-1.567,0.186-3.095,0.384-4.601,0.567c-1.503,0.208-2.895,0.551-4.111,1.046
	c-1.225,0.493-2.211,1.223-2.961,2.169c-0.742,0.941-1.123,2.269-1.123,3.945c0,1.211,0.218,2.266,0.628,3.144
	c0.427,0.883,1.011,1.627,1.731,2.199c0.729,0.569,1.586,1.002,2.563,1.265c0.982,0.259,2.036,0.389,3.124,0.389
	c1.155,0,2.177-0.105,3.032-0.324c0.848-0.214,1.612-0.528,2.278-0.931c0.66-0.399,1.263-0.905,1.809-1.513
	c0.495-0.546,0.985-1.164,1.452-1.807c0.003,0.486,0.043,0.946,0.11,1.378c0.068,0.521,0.245,0.971,0.5,1.356
	c0.252,0.381,0.617,0.683,1.088,0.896c0.459,0.205,1.057,0.302,1.814,0.302c0.402,0,0.729-0.017,0.998-0.043
	c0.267-0.031,0.559-0.075,0.9-0.136l0.113-0.016v-2.742l-0.186,0.083C779.718,293.502,779.431,293.556,779.114,293.556z
	 M774.417,283.501v3.465c0,1.136-0.223,2.168-0.66,3.048c-0.429,0.905-1.02,1.67-1.746,2.295c-0.721,0.621-1.594,1.103-2.586,1.435
	c-1.602,0.535-3.409,0.734-5.043,0.192c-0.63-0.218-1.181-0.525-1.654-0.918c-0.469-0.397-0.852-0.876-1.128-1.426
	c-0.28-0.537-0.423-1.172-0.423-1.881c0-1.109,0.341-1.984,0.989-2.584c0.674-0.608,1.543-1.076,2.584-1.412
	c1.052-0.325,2.243-0.583,3.519-0.749c1.301-0.171,2.563-0.355,3.778-0.567c0.401-0.071,0.87-0.172,1.397-0.333
	C773.867,283.943,774.194,283.756,774.417,283.501z"/>
<path fill="#FFFFFF" d="M799.9,287.64c-0.102,0.962-0.331,1.849-0.723,2.655c-0.389,0.813-0.891,1.517-1.481,2.084
	c-0.594,0.582-1.291,1.044-2.064,1.373c-0.774,0.334-1.605,0.499-2.466,0.499c-1.348,0-2.535-0.289-3.551-0.855
	c-1.015-0.57-1.868-1.326-2.544-2.25c-0.671-0.922-1.185-2.001-1.528-3.196c-0.354-1.172-0.529-2.4-0.529-3.642
	c0-1.237,0.176-2.458,0.529-3.644c0.344-1.188,0.862-2.266,1.528-3.184c0.667-0.927,1.529-1.688,2.544-2.251
	c1.014-0.559,2.203-0.854,3.551-0.854c1.88,0,3.361,0.499,4.396,1.475c1.034,0.978,1.769,2.356,2.155,4.101l0.026,0.102h3.137
	l-0.019-0.149c-0.344-2.737-1.413-4.814-3.188-6.174c-1.767-1.355-3.959-2.042-6.507-2.042c-1.806,0-3.43,0.345-4.841,1.023
	c-1.393,0.673-2.59,1.596-3.54,2.734c-0.952,1.132-1.683,2.479-2.172,3.996c-0.502,1.527-0.745,3.166-0.745,4.868
	c0,1.718,0.243,3.349,0.745,4.871c0.489,1.518,1.22,2.864,2.169,4.002c0.953,1.133,2.15,2.054,3.543,2.707
	c1.396,0.666,3.029,1.001,4.841,1.001c2.702,0,4.947-0.822,6.686-2.436c1.725-1.626,2.799-3.91,3.193-6.786l0.016-0.15h-3.153
	L799.9,287.64z"/>
<path fill="#FFFFFF" d="M831.738,271.686c-1.572,0-3.073,0.388-4.455,1.162c-1.293,0.718-2.316,1.807-3.018,3.229
	c-0.467-1.422-1.301-2.511-2.49-3.224c-1.286-0.778-2.74-1.167-4.304-1.167c-1.946,0-3.56,0.425-4.817,1.263
	c-1.19,0.783-2.172,1.886-2.933,3.268v-3.844h-2.914v23.872h3.15v-13.306c0-1.23,0.136-2.384,0.406-3.42
	c0.271-1.033,0.688-1.943,1.235-2.703c0.554-0.762,1.275-1.364,2.146-1.794c0.883-0.433,1.937-0.647,3.131-0.647
	c0.876,0,1.64,0.15,2.268,0.446c0.62,0.293,1.121,0.7,1.485,1.212c0.367,0.516,0.638,1.132,0.803,1.828
	c0.165,0.716,0.251,1.473,0.251,2.239v16.145h3.143v-13.49c0-1.085,0.102-2.151,0.3-3.153c0.187-1.002,0.532-1.903,1.013-2.682
	c0.47-0.77,1.122-1.39,1.92-1.854c0.807-0.455,1.828-0.691,3.044-0.691c2.019,0,3.451,0.499,4.242,1.483
	c0.804,0.992,1.216,2.47,1.216,4.378v16.008h3.138V280.1C839.697,274.515,837.023,271.686,831.738,271.686z"/>
<polygon fill="#FFFFFF" points="845.888,296.245 848.125,296.245 849.029,296.245 849.029,293.901 849.029,292.356 849.029,290.191 
	849.029,286.946 849.029,283.546 849.029,278.753 849.029,276.281 849.029,274.117 849.029,272.373 847.506,272.373 
	845.888,272.373 845.888,275.972 845.888,278.754 845.888,281.227 845.888,283.854 845.888,286.792 845.888,290.81 845.888,293.438 
	"/>
<polygon fill="#FFFFFF" points="855.264,296.245 856.78,296.245 858.412,296.245 858.412,294.211 858.412,290.965 858.412,287.874 
	858.412,280.763 858.412,277.518 858.412,274.581 858.412,273.344 858.412,269.17 858.412,265.307 858.412,263.306 856.471,263.306 
	855.264,263.306 855.264,268.707 855.264,272.108 855.264,277.518 855.264,282.927 855.264,285.864 855.264,290.501 
	855.264,292.665 "/>
<polygon fill="#FFFFFF" points="864.644,296.245 866.363,296.245 867.795,296.245 867.795,292.511 867.795,289.265 867.795,285.864 
	867.795,283.7 867.795,281.536 867.795,277.981 867.795,274.581 867.795,271.026 867.795,268.244 867.795,266.234 867.795,263.306 
	866.518,263.306 865.745,263.306 864.644,263.306 864.644,265.152 864.644,267.78 864.644,268.707 864.644,270.407 864.644,274.117 
	864.644,277.054 864.644,280.917 864.644,285.399 864.644,289.11 864.644,292.665 "/>
<path fill="#FFFFFF" d="M892.871,293.556c-1.053,0-1.559-0.524-1.559-1.61v-12.531c0-1.606-0.265-2.927-0.799-3.927
	c-0.523-1.011-1.213-1.798-2.054-2.358c-0.833-0.563-1.791-0.944-2.845-1.145c-2.414-0.456-4.904-0.373-6.921,0.165
	c-1.133,0.31-2.147,0.791-2.996,1.438c-0.857,0.656-1.536,1.515-2.028,2.519c-0.494,1.02-0.798,2.235-0.886,3.618l-0.005,0.143
	h3.155v-0.126c0.061-1.872,0.657-3.249,1.777-4.084c1.137-0.848,2.618-1.282,4.401-1.282c0.853,0,1.653,0.066,2.379,0.203
	c0.745,0.136,1.368,0.375,1.925,0.738c0.542,0.355,0.976,0.831,1.276,1.438c0.316,0.6,0.469,1.389,0.469,2.335
	c0,0.621-0.08,1.128-0.235,1.51c-0.164,0.367-0.382,0.66-0.675,0.888c-0.284,0.213-0.66,0.366-1.085,0.45
	c-0.459,0.096-0.982,0.175-1.598,0.228c-1.557,0.186-3.081,0.384-4.598,0.567c-1.52,0.208-2.897,0.551-4.104,1.046
	c-1.211,0.49-2.212,1.221-2.964,2.169c-0.743,0.948-1.121,2.278-1.121,3.945c0,1.226,0.213,2.255,0.629,3.144
	c0.417,0.883,1,1.627,1.734,2.199c0.729,0.569,1.583,1.002,2.565,1.265c0.972,0.259,2.025,0.389,3.118,0.389
	c1.152,0,2.167-0.105,3.037-0.324c0.838-0.214,1.606-0.528,2.272-0.931c0.673-0.399,1.277-0.909,1.804-1.513
	c0.493-0.542,0.983-1.164,1.45-1.807c0.011,0.513,0.049,0.962,0.112,1.378c0.087,0.521,0.25,0.966,0.5,1.356
	c0.261,0.381,0.624,0.683,1.088,0.896c0.464,0.205,1.054,0.302,1.807,0.302c0.413,0,0.745-0.017,1.011-0.043
	c0.257-0.031,0.563-0.075,0.895-0.136l0.106-0.016v-2.742l-0.184,0.083C893.474,293.502,893.191,293.556,892.871,293.556z
	 M888.162,283.501v3.465c0,1.136-0.219,2.168-0.644,3.048c-0.438,0.896-1.028,1.666-1.76,2.295
	c-0.726,0.621-1.589,1.103-2.586,1.435c-1.602,0.535-3.396,0.743-5.034,0.192c-0.634-0.218-1.174-0.517-1.648-0.918
	c-0.476-0.397-0.858-0.876-1.144-1.426c-0.279-0.546-0.418-1.181-0.418-1.881c0-1.132,0.317-1.975,0.989-2.584
	c0.663-0.608,1.533-1.076,2.584-1.412c1.052-0.325,2.238-0.583,3.519-0.749c1.296-0.171,2.563-0.355,3.773-0.567
	c0.409-0.071,0.87-0.172,1.394-0.333C887.616,283.943,887.943,283.756,888.162,283.501z"/>
<path fill="#FFFFFF" d="M916.696,277.095c-0.271-1.141-0.762-2.121-1.435-2.913c-0.679-0.786-1.602-1.412-2.74-1.844
	c-1.13-0.43-2.534-0.652-4.188-0.652c-1.695,0-3.273,0.446-4.687,1.324c-1.313,0.81-2.272,1.882-2.82,3.12v-3.757h-3.146v23.872
	h3.146v-13.896c0.031-1.146,0.22-2.218,0.559-3.189c0.351-0.971,0.836-1.828,1.444-2.518c0.607-0.7,1.368-1.255,2.246-1.662
	c0.879-0.407,1.903-0.605,3.033-0.605c1.135,0,2.094,0.184,2.845,0.534c0.751,0.36,1.357,0.85,1.802,1.469
	c0.45,0.618,0.761,1.365,0.944,2.222c0.177,0.84,0.264,1.782,0.264,2.783v14.863h3.147v-15.317
	C917.11,279.521,916.978,278.233,916.696,277.095z"/>
<rect x="702.783" y="259.971" fill="#FFFFFF" width="1.998" height="77.717"/>
<path fill="#FFFFFF" d="M847.513,263.169c-1.079,0-1.981,0.891-1.981,1.993c0,1.091,0.902,1.968,1.981,1.968
	c1.088,0,1.982-0.877,1.982-1.968C849.495,264.06,848.601,263.169,847.513,263.169z"/>
<path fill="#FFFFFF" d="M731.178,311.878c-3.555,0-6.464,1.398-8.412,4.044c-1.672,2.269-2.593,5.405-2.593,8.829
	c0,8.061,4.115,12.874,11.004,12.874c5.795,0,9.271-2.858,10.627-8.737l0.035-0.151h-3.191l-0.025,0.093
	c-1.018,3.974-3.593,6.072-7.446,6.072c-5.28,0-7.721-4.615-7.814-9.232h18.534l0.005-0.12c0.152-4.422-1.106-8.351-3.452-10.778
	C736.598,312.852,734.149,311.878,731.178,311.878z M723.376,322.946c0.491-4.177,3.078-8.346,7.802-8.346
	c4.723,0,7.35,4.178,7.532,8.346H723.376z"/>
<path fill="#FFFFFF" d="M763.983,316.869c-1.295-3.046-4.52-4.991-8.329-4.991c-8.088,0-10.958,6.936-10.958,12.873
	c0,3.545,0.958,6.743,2.694,9.006c1.94,2.53,4.798,3.868,8.264,3.868c3.599,0,7.205-2.14,8.563-5.027v4.326h2.956v-33.592h-3.19
	V316.869z M763.983,324.751c0,7.484-4.302,10.15-8.329,10.15c-5.734,0-7.768-5.468-7.768-10.15c0-4.682,2.034-10.15,7.768-10.15
	C759.681,314.601,763.983,317.268,763.983,324.751z"/>
<path fill="#FFFFFF" d="M789.206,325.358c0,7.045-3.834,9.543-7.116,9.543c-4.341,0-6.171-1.885-6.32-6.507v-15.815h-3.19v15.768
	c0,6.156,2.887,9.278,8.577,9.278c3.631,0,6.702-1.8,8.282-4.831v4.13h2.956v-24.345h-3.188V325.358z"/>
<path fill="#FFFFFF" d="M814.989,328.149c-0.364,3.912-3.26,6.752-6.884,6.752c-5.723,0-8.329-5.262-8.329-10.15
	s2.606-10.15,8.329-10.15c3.561,0,5.877,1.969,6.699,5.693l0.021,0.098h3.18l-0.017-0.139c-0.623-5.243-4.318-8.375-9.884-8.375
	c-3.523,0-6.482,1.325-8.559,3.827c-1.908,2.302-2.959,5.515-2.959,9.046c0,3.532,1.051,6.745,2.959,9.045
	c2.076,2.504,5.035,3.829,8.559,3.829c5.413,0,9.271-3.62,10.07-9.448l0.019-0.14h-3.195L814.989,328.149z"/>
<path fill="#FFFFFF" d="M842.341,334.201c-1.064,0-1.604-0.555-1.604-1.651v-12.796c0-5.226-3.028-7.876-8.997-7.876
	c-6.112,0-9.622,2.912-9.884,8.197l-0.007,0.13h3.192l0.004-0.121c0.049-2.048,0.935-5.483,6.321-5.483
	c4.217,0,6.18,1.533,6.18,4.827c0,2.597-1.327,2.877-3.674,3.146c-0.437,0.051-0.877,0.102-1.315,0.149
	c-6.031,0.674-11.729,1.312-11.729,7.725c0,4.426,3.144,7.177,8.203,7.177c4.605,0,6.73-1.745,8.752-4.765
	c0.066,3.375,1.423,4.063,3.577,4.063c0.801,0,1.272-0.047,1.94-0.19l0.098-0.02v-2.757l-0.169,0.066
	C843.006,334.112,842.645,334.201,842.341,334.201z M832.599,325.212c0.839-0.117,1.704-0.24,2.525-0.386
	c0.731-0.129,1.907-0.337,2.423-0.937v3.571c0.021,1.952-0.663,3.685-1.976,5.011c-1.529,1.544-3.828,2.43-6.306,2.43
	c-3.409,0-5.247-2.39-5.247-4.641C824.019,326.425,828.186,325.837,832.599,325.212z"/>
<path fill="#FFFFFF" d="M851.389,305.34h-3.189v7.239h-4.202v2.722h4.202v16.361c-0.024,2.161,0.337,3.502,1.173,4.347
	c0.816,0.826,2.105,1.194,4.181,1.194c0.448,0,0.889-0.024,1.316-0.047c0.422-0.022,0.859-0.047,1.3-0.047h0.123v-2.782
	l-0.138,0.015c-0.827,0.093-1.672,0.139-2.499,0.14c-1.94-0.129-2.267-1.045-2.267-3.052v-16.129h4.903v-2.722h-4.903V305.34z"/>
<path fill="#FFFFFF" d="M881.296,311.878c-3.523,0-6.482,1.325-8.559,3.827c-1.908,2.302-2.959,5.515-2.959,9.046
	c0,3.532,1.051,6.745,2.959,9.045c2.076,2.504,5.035,3.829,8.559,3.829s6.484-1.325,8.561-3.829c1.908-2.3,2.959-5.513,2.959-9.045
	c0-3.531-1.051-6.744-2.959-9.046C887.78,313.203,884.819,311.878,881.296,311.878z M881.296,334.901
	c-5.723,0-8.329-5.262-8.329-10.15s2.606-10.15,8.329-10.15s8.329,5.262,8.329,10.15S887.019,334.901,881.296,334.901z"/>
<path fill="#FFFFFF" d="M907.873,311.878c-3.38,0-6.475,1.866-7.675,4.581v-3.88h-3.189v24.345h3.189v-14.179
	c0.097-4.872,3.088-8.145,7.442-8.145c4.09,0,5.994,2.275,5.994,7.161v15.162h3.188v-15.629
	C916.823,314.782,914.063,311.878,907.873,311.878z"/>
<path fill="#FFFFFF" d="M861.371,312.579h1.437h1.754v2.962v2.628v2.318v4.019v2.009v2.474v3.092v2.318v2.525h-1.599h-1.592v-2.217
	v-3.091v-2.32v-2.781v-2.937v-3.71v-2.781v-2.164V312.579z M862.966,303.725c-1.079,0-1.981,0.891-1.981,1.993
	c0,1.091,0.902,1.968,1.981,1.968c1.088,0,1.982-0.877,1.982-1.968C864.948,304.615,864.054,303.725,862.966,303.725z"/>
<g>
	<path fill="#FFFFFF" d="M23.902,24.481c0-5.446-3.898-5.975-6.854-3.555c-1.882,1.541-4.295,4.336-4.295,1.678
		c0-6.301-6.298-3.514-10.46,1.89l0.002,5.833c4.164-5.397,10.458-8.18,10.458-1.886c0,2.661,2.413-0.135,4.295-1.673
		c2.685-2.202,6.141-1.963,6.758,2.174h0.096V24.481L23.902,24.481z"/>
	<path fill="#FFFFFF" d="M23.902,16.832c0-5.445-3.898-5.979-6.854-3.555c-1.882,1.541-4.295,4.338-4.295,1.68
		c0-6.299-6.294-3.516-10.458,1.884v5.536c4.253-5.075,10.458-7.876,10.458-1.578c0,2.656,2.413-0.143,4.295-1.678
		c2.685-2.203,6.141-1.965,6.758,2.166h0.096V16.832L23.902,16.832z"/>
	<path fill="#FFFFFF" d="M48.121,13.952c-0.64,0-1.248,0.158-1.813,0.474c-0.529,0.292-0.941,0.735-1.231,1.314
		c-0.185-0.58-0.528-1.022-1.016-1.313c-0.519-0.317-1.109-0.476-1.747-0.476c-0.791,0-1.45,0.175-1.961,0.515
		c-0.485,0.322-0.884,0.769-1.193,1.331v-1.565h-1.187v9.715h1.282v-5.415c0-0.5,0.058-0.971,0.167-1.391
		c0.11-0.421,0.28-0.793,0.504-1.101c0.222-0.31,0.517-0.557,0.87-0.731c0.364-0.174,0.79-0.261,1.273-0.261
		c0.359,0,0.669,0.06,0.927,0.181c0.251,0.12,0.458,0.285,0.604,0.492c0.147,0.211,0.257,0.461,0.326,0.746
		c0.067,0.295,0.102,0.6,0.102,0.91v6.571h1.278v-5.489c0-0.442,0.045-0.876,0.123-1.284c0.079-0.403,0.215-0.768,0.411-1.092
		c0.191-0.313,0.457-0.565,0.781-0.754c0.33-0.185,0.746-0.28,1.242-0.28c0.82,0,1.404,0.201,1.728,0.602
		c0.325,0.405,0.49,1.005,0.49,1.782v6.515h1.277v-6.571C51.356,15.104,50.271,13.952,48.121,13.952z"/>
	<path fill="#FFFFFF" d="M61.545,22.855c-0.426,0-0.631-0.214-0.631-0.656v-5.101c0-0.654-0.113-1.189-0.326-1.599
		c-0.212-0.411-0.494-0.731-0.835-0.959c-0.347-0.229-0.725-0.38-1.153-0.466c-0.991-0.185-2.001-0.151-2.82,0.066
		c-0.463,0.127-0.87,0.324-1.217,0.586c-0.349,0.266-0.629,0.61-0.829,1.025c-0.202,0.411-0.322,0.908-0.359,1.473l-0.006,0.059
		h1.285l0.002-0.052c0.027-0.763,0.268-1.321,0.721-1.662c0.463-0.346,1.063-0.521,1.795-0.521c0.346,0,0.675,0.027,0.969,0.081
		c0.297,0.057,0.557,0.156,0.779,0.301c0.222,0.146,0.395,0.339,0.52,0.583c0.126,0.248,0.195,0.569,0.195,0.953
		c0,0.251-0.033,0.459-0.102,0.613c-0.062,0.149-0.151,0.27-0.272,0.361c-0.119,0.087-0.268,0.15-0.442,0.183
		c-0.185,0.04-0.401,0.073-0.646,0.093c-0.637,0.075-1.258,0.156-1.871,0.231c-0.613,0.084-1.179,0.224-1.674,0.425
		c-0.498,0.201-0.902,0.499-1.205,0.883c-0.303,0.384-0.457,0.924-0.457,1.605c0,0.492,0.087,0.922,0.255,1.28
		c0.172,0.359,0.41,0.663,0.704,0.895c0.297,0.232,0.646,0.409,1.042,0.515c0.401,0.106,0.829,0.16,1.273,0.16
		c0.469,0,0.884-0.043,1.231-0.133c0.347-0.087,0.656-0.216,0.928-0.38c0.268-0.162,0.513-0.368,0.735-0.615
		c0.202-0.222,0.403-0.473,0.592-0.735c0.003,0.197,0.019,0.384,0.046,0.56c0.027,0.212,0.1,0.395,0.202,0.55
		c0.104,0.156,0.251,0.278,0.444,0.366c0.187,0.083,0.43,0.122,0.737,0.122c0.164,0,0.297-0.006,0.407-0.017
		c0.108-0.015,0.227-0.031,0.366-0.057l0.045-0.006v-1.115L61.9,22.786C61.79,22.832,61.674,22.855,61.545,22.855z M59.634,18.762
		v1.41c0,0.463-0.091,0.883-0.27,1.239c-0.174,0.37-0.413,0.682-0.71,0.935c-0.292,0.254-0.647,0.449-1.05,0.583
		c-0.652,0.218-1.39,0.299-2.054,0.079c-0.255-0.089-0.48-0.213-0.673-0.374c-0.191-0.162-0.346-0.357-0.459-0.58
		c-0.114-0.22-0.172-0.478-0.172-0.766c0-0.453,0.139-0.808,0.403-1.053c0.274-0.247,0.627-0.436,1.051-0.573
		c0.428-0.133,0.914-0.239,1.433-0.305c0.53-0.071,1.042-0.146,1.537-0.23c0.164-0.029,0.353-0.071,0.569-0.135
		C59.41,18.942,59.543,18.866,59.634,18.762z"/>
	<path fill="#FFFFFF" d="M70.004,20.446c-0.04,0.391-0.135,0.752-0.293,1.08c-0.158,0.331-0.363,0.617-0.602,0.849
		c-0.243,0.237-0.528,0.426-0.841,0.559c-0.315,0.134-0.654,0.203-1.003,0.203c-0.548,0-1.032-0.119-1.445-0.349
		c-0.413-0.232-0.76-0.54-1.036-0.916c-0.272-0.374-0.482-0.814-0.621-1.3c-0.143-0.478-0.215-0.979-0.215-1.483
		s0.072-1.001,0.215-1.483c0.139-0.484,0.351-0.922,0.621-1.296c0.272-0.378,0.623-0.687,1.036-0.916
		c0.411-0.229,0.897-0.347,1.445-0.347c0.764,0,1.369,0.201,1.788,0.598c0.422,0.399,0.721,0.959,0.877,1.669l0.012,0.042h1.275
		l-0.007-0.06c-0.139-1.115-0.575-1.96-1.297-2.513c-0.719-0.552-1.612-0.833-2.648-0.833c-0.735,0-1.396,0.141-1.97,0.418
		c-0.567,0.274-1.055,0.649-1.44,1.113c-0.388,0.461-0.685,1.009-0.884,1.625c-0.204,0.621-0.303,1.288-0.303,1.981
		c0,0.697,0.1,1.362,0.303,1.981c0.199,0.619,0.497,1.167,0.882,1.63c0.387,0.461,0.875,0.835,1.442,1.101
		c0.569,0.272,1.233,0.409,1.97,0.409c1.099,0,2.015-0.337,2.721-0.993c0.702-0.663,1.141-1.59,1.3-2.762l0.006-0.06h-1.283
		L70.004,20.446z"/>
	<path fill="#FFFFFF" d="M82.962,13.952c-0.64,0-1.252,0.158-1.813,0.474c-0.527,0.292-0.943,0.735-1.227,1.314
		c-0.191-0.58-0.53-1.022-1.016-1.313c-0.523-0.317-1.115-0.476-1.751-0.476c-0.791,0-1.447,0.175-1.96,0.515
		c-0.485,0.32-0.883,0.767-1.194,1.329v-1.563h-1.186v9.715h1.284v-5.415c0-0.5,0.054-0.971,0.164-1.391
		c0.11-0.421,0.281-0.791,0.503-1.101c0.227-0.31,0.519-0.557,0.875-0.731c0.357-0.174,0.787-0.261,1.273-0.261
		c0.357,0,0.669,0.06,0.924,0.181c0.251,0.12,0.455,0.285,0.605,0.492c0.149,0.211,0.259,0.461,0.326,0.746
		c0.066,0.291,0.102,0.598,0.102,0.91v6.571h1.28v-5.489c0-0.442,0.042-0.876,0.123-1.284c0.074-0.409,0.215-0.774,0.411-1.092
		c0.191-0.313,0.457-0.565,0.781-0.754c0.328-0.185,0.746-0.28,1.24-0.28c0.82,0,1.404,0.201,1.726,0.602
		c0.329,0.405,0.496,1.005,0.496,1.782v6.515H86.2v-6.571C86.2,15.104,85.114,13.952,82.962,13.952z"/>
	<polygon fill="#FFFFFF" points="88.722,23.947 89.631,23.947 90,23.947 90,22.994 90,22.365 90,21.484 90,20.164 90,18.78 
		90,16.828 90,15.823 90,14.942 90,14.232 89.379,14.232 88.722,14.232 88.722,15.698 88.722,16.828 88.722,17.835 88.722,18.905 
		88.722,20.102 88.722,21.736 88.722,22.805 	"/>
	<polygon fill="#FFFFFF" points="92.537,23.947 93.153,23.947 93.817,23.947 93.817,23.121 93.817,21.8 93.817,20.539 
		93.817,17.646 93.817,16.326 93.817,15.129 93.817,14.626 93.817,12.928 93.817,11.356 93.817,10.542 93.029,10.542 92.537,10.542 
		92.537,12.739 92.537,14.124 92.537,16.326 92.537,18.527 92.537,19.723 92.537,21.611 92.537,22.492 	"/>
	<polygon fill="#FFFFFF" points="96.354,23.947 97.056,23.947 97.637,23.947 97.637,22.429 97.637,21.108 97.637,19.723 
		97.637,18.842 97.637,17.962 97.637,16.514 97.637,15.132 97.637,13.687 97.637,12.552 97.637,11.734 97.637,10.542 97.118,10.542 
		96.802,10.542 96.354,10.542 96.354,11.293 96.354,12.363 96.354,12.739 96.354,13.433 96.354,14.942 96.354,16.137 96.354,17.71 
		96.354,19.534 96.354,21.044 96.354,22.492 	"/>
	<path fill="#FFFFFF" d="M107.842,22.855c-0.427,0-0.633-0.214-0.633-0.656v-5.101c0-0.654-0.108-1.189-0.326-1.599
		c-0.212-0.411-0.492-0.731-0.835-0.959c-0.34-0.229-0.729-0.385-1.159-0.466c-0.982-0.185-1.996-0.151-2.815,0.066
		c-0.461,0.127-0.875,0.324-1.22,0.586c-0.349,0.268-0.625,0.617-0.826,1.025c-0.2,0.416-0.324,0.91-0.361,1.473v0.059h1.284v-0.052
		c0.024-0.763,0.267-1.321,0.723-1.662c0.463-0.346,1.067-0.521,1.792-0.521c0.347,0,0.673,0.027,0.968,0.081
		c0.303,0.057,0.556,0.152,0.783,0.301c0.222,0.144,0.398,0.337,0.519,0.583c0.129,0.246,0.191,0.567,0.191,0.953
		c0,0.251-0.031,0.458-0.095,0.613c-0.066,0.149-0.156,0.27-0.274,0.361c-0.116,0.087-0.268,0.15-0.442,0.183
		c-0.187,0.04-0.399,0.073-0.65,0.093c-0.633,0.075-1.252,0.156-1.872,0.231c-0.619,0.084-1.179,0.224-1.669,0.425
		c-0.492,0.199-0.899,0.497-1.207,0.883c-0.303,0.386-0.455,0.928-0.455,1.605c0,0.501,0.085,0.918,0.256,1.28
		c0.17,0.359,0.407,0.663,0.706,0.895c0.297,0.232,0.644,0.409,1.042,0.515c0.397,0.106,0.825,0.16,1.27,0.16
		c0.469,0,0.882-0.043,1.237-0.133c0.341-0.087,0.654-0.216,0.924-0.38c0.274-0.162,0.52-0.37,0.735-0.615
		c0.2-0.222,0.399-0.473,0.59-0.735c0.003,0.207,0.019,0.392,0.045,0.56c0.036,0.212,0.103,0.393,0.204,0.55
		c0.105,0.156,0.253,0.278,0.442,0.366c0.189,0.083,0.427,0.122,0.735,0.122c0.168,0,0.303-0.006,0.411-0.017
		c0.106-0.015,0.229-0.031,0.364-0.057l0.044-0.006v-1.115l-0.075,0.033C108.087,22.832,107.973,22.855,107.842,22.855z
		 M105.925,18.762v1.41c0,0.463-0.088,0.883-0.262,1.239c-0.176,0.366-0.417,0.68-0.716,0.935c-0.295,0.254-0.646,0.449-1.051,0.583
		c-0.652,0.218-1.383,0.304-2.05,0.079c-0.257-0.089-0.477-0.21-0.671-0.374c-0.193-0.162-0.349-0.357-0.465-0.58
		c-0.115-0.222-0.17-0.482-0.17-0.766c0-0.461,0.129-0.804,0.403-1.053c0.27-0.247,0.623-0.436,1.051-0.573
		c0.427-0.133,0.912-0.239,1.433-0.305c0.527-0.071,1.042-0.146,1.534-0.23c0.168-0.029,0.355-0.071,0.567-0.135
		C105.703,18.942,105.836,18.866,105.925,18.762z"/>
	<path fill="#FFFFFF" d="M117.538,16.156c-0.11-0.466-0.31-0.865-0.583-1.188c-0.276-0.317-0.652-0.573-1.115-0.75
		c-0.459-0.174-1.032-0.266-1.705-0.266c-0.689,0-1.331,0.183-1.906,0.54c-0.534,0.331-0.926,0.766-1.148,1.269v-1.528H109.8v9.715
		h1.279v-5.655c0.013-0.465,0.089-0.901,0.229-1.298c0.141-0.395,0.34-0.743,0.587-1.024c0.248-0.284,0.557-0.511,0.914-0.677
		c0.357-0.167,0.774-0.245,1.233-0.245c0.463,0,0.854,0.073,1.159,0.216c0.306,0.145,0.553,0.346,0.733,0.598
		c0.184,0.251,0.31,0.555,0.385,0.903c0.071,0.343,0.108,0.725,0.108,1.134v6.048h1.279v-6.234
		C117.707,17.142,117.653,16.616,117.538,16.156z"/>
	<rect x="30.479" y="9.186" fill="#FFFFFF" width="0.814" height="31.629"/>
	<path fill="#FFFFFF" d="M89.381,10.486c-0.438,0-0.805,0.363-0.805,0.812c0,0.444,0.368,0.802,0.805,0.802
		c0.442,0,0.807-0.357,0.807-0.802C90.188,10.849,89.824,10.486,89.381,10.486z"/>
	<path fill="#FFFFFF" d="M42.036,30.311c-1.447,0-2.629,0.569-3.422,1.647c-0.681,0.922-1.057,2.199-1.057,3.593
		c0,3.281,1.676,5.239,4.479,5.239c2.359,0,3.773-1.162,4.326-3.555l0.012-0.062h-1.298l-0.01,0.038
		c-0.413,1.616-1.462,2.471-3.03,2.471c-2.149,0-3.142-1.877-3.18-3.757h7.543l0.002-0.05c0.061-1.8-0.451-3.398-1.406-4.386
		C44.242,30.707,43.245,30.311,42.036,30.311z M38.861,34.814c0.2-1.7,1.252-3.395,3.175-3.395s2.991,1.699,3.065,3.395H38.861z"/>
	<path fill="#FFFFFF" d="M55.388,32.341c-0.528-1.24-1.84-2.031-3.392-2.031c-3.292,0-4.458,2.822-4.458,5.24
		c0,1.441,0.388,2.743,1.096,3.666c0.79,1.027,1.953,1.573,3.362,1.573c1.466,0,2.932-0.872,3.487-2.045v1.759h1.202V26.832h-1.298
		V32.341z M55.388,35.55c0,3.046-1.75,4.13-3.392,4.13c-2.332,0-3.161-2.227-3.161-4.13c0-1.907,0.829-4.131,3.161-4.131
		C53.637,31.419,55.388,32.503,55.388,35.55z"/>
	<path fill="#FFFFFF" d="M65.653,35.797c0,2.866-1.562,3.884-2.897,3.884c-1.767,0-2.511-0.766-2.571-2.648v-6.438h-1.3v6.417
		c0,2.507,1.176,3.777,3.491,3.777c1.479,0,2.727-0.733,3.371-1.966v1.68h1.205v-9.908h-1.298V35.797z"/>
	<path fill="#FFFFFF" d="M76.146,36.933c-0.149,1.591-1.327,2.748-2.801,2.748c-2.33,0-3.392-2.141-3.392-4.13
		c0-1.99,1.062-4.131,3.392-4.131c1.447,0,2.39,0.8,2.727,2.317l0.008,0.04h1.294l-0.006-0.058c-0.256-2.132-1.76-3.408-4.023-3.408
		c-1.435,0-2.64,0.54-3.485,1.558c-0.777,0.937-1.204,2.245-1.204,3.682c0,1.437,0.427,2.743,1.204,3.68
		c0.845,1.02,2.05,1.559,3.485,1.559c2.201,0,3.773-1.474,4.097-3.846l0.007-0.056h-1.301L76.146,36.933z"/>
	<path fill="#FFFFFF" d="M87.276,39.395c-0.432,0-0.652-0.225-0.652-0.671v-5.209c0-2.126-1.231-3.204-3.662-3.204
		c-2.488,0-3.917,1.186-4.022,3.337l-0.002,0.052h1.298l0.002-0.05c0.021-0.833,0.382-2.23,2.573-2.23
		c1.717,0,2.515,0.623,2.515,1.963c0,1.059-0.54,1.17-1.495,1.281c-0.176,0.021-0.355,0.042-0.536,0.06
		c-2.455,0.274-4.772,0.534-4.772,3.144c0,1.803,1.279,2.922,3.337,2.922c1.875,0,2.739-0.709,3.563-1.939
		c0.025,1.373,0.578,1.653,1.456,1.653c0.324,0,0.517-0.019,0.789-0.077l0.04-0.008v-1.121l-0.068,0.027
		C87.548,39.361,87.4,39.395,87.276,39.395z M83.312,35.737c0.343-0.048,0.696-0.097,1.028-0.158
		c0.299-0.052,0.776-0.136,0.986-0.379v1.453c0.008,0.796-0.27,1.5-0.804,2.04c-0.623,0.627-1.558,0.988-2.566,0.988
		c-1.388,0-2.135-0.972-2.135-1.89C79.82,36.231,81.517,35.993,83.312,35.737z"/>
	<path fill="#FFFFFF" d="M90.96,27.65h-1.298v2.944h-1.711v1.109h1.711v6.659c-0.011,0.88,0.137,1.424,0.478,1.769
		c0.331,0.337,0.855,0.486,1.701,0.486c0.181,0,0.361-0.011,0.536-0.019c0.172-0.008,0.349-0.019,0.529-0.019h0.048v-1.132
		L92.9,39.452c-0.337,0.038-0.681,0.056-1.018,0.058c-0.789-0.054-0.921-0.425-0.921-1.244v-6.563h1.993v-1.109H90.96V27.65z"/>
	<path fill="#FFFFFF" d="M103.13,30.311c-1.433,0-2.638,0.54-3.483,1.558c-0.776,0.937-1.202,2.245-1.202,3.682
		c0,1.437,0.426,2.743,1.202,3.68c0.845,1.02,2.05,1.559,3.483,1.559c1.435,0,2.64-0.539,3.485-1.559
		c0.776-0.937,1.205-2.243,1.205-3.68c0-1.438-0.428-2.746-1.205-3.682C105.77,30.85,104.565,30.311,103.13,30.311z M103.13,39.681
		c-2.328,0-3.39-2.141-3.39-4.13c0-1.99,1.062-4.131,3.39-4.131c2.33,0,3.392,2.141,3.392,4.131
		C106.521,37.54,105.46,39.681,103.13,39.681z"/>
	<path fill="#FFFFFF" d="M113.948,30.311c-1.375,0-2.636,0.76-3.124,1.864v-1.58h-1.297v9.908h1.297v-5.77
		c0.04-1.982,1.257-3.314,3.03-3.314c1.664,0,2.44,0.926,2.44,2.914v6.17h1.296v-6.361C117.59,31.492,116.467,30.311,113.948,30.311
		z"/>
	<path fill="#FFFFFF" d="M95.022,30.595h0.583h0.715v1.207v1.07v0.943v1.637v0.816v1.007v1.259v0.943v1.027h-0.65h-0.648v-0.901
		v-1.258V37.4v-1.134v-1.194v-1.509v-1.132v-0.88V30.595z M95.672,26.992c-0.44,0-0.808,0.363-0.808,0.812
		c0,0.442,0.367,0.8,0.808,0.8c0.442,0,0.806-0.357,0.806-0.8C96.478,27.355,96.115,26.992,95.672,26.992z"/>
</g>
</svg>
